<svg width="250" height="78" viewBox="0 0 250 78" fill="none" xmlns="http://www.w3.org/2000/svg">
<path d="M84.7766 0L43.7021 23.7226L46.6272 4.53629L84.7766 0Z" fill="url(#paint0_linear_909_986)"/>
<path d="M84.777 0L61.7485 30.7873L43.6777 23.7226L84.777 0Z" fill="url(#paint1_linear_909_986)"/>
<path d="M42.3887 25.9783V73.4235L57.5344 38.0999L42.3887 25.9783Z" fill="url(#paint2_linear_909_986)"/>
<path d="M27.2422 38.0999L42.3879 25.9783V73.4235L27.2422 38.0999Z" fill="url(#paint3_linear_909_986)"/>
<path d="M41.0745 23.7226L0 0L23.0285 30.7873L41.0745 23.7226Z" fill="url(#paint4_linear_909_986)"/>
<path d="M38.1742 4.56108L41.0993 23.7473L0 0L38.1742 4.56108Z" fill="url(#paint5_linear_909_986)"/>
<path d="M97.5035 60.9912V23.6041H84.1406V15.9819H119.887V23.6041H106.573V60.9912H97.5035Z" fill="#384156"/>
<path d="M161.665 60.9912H151.775L147.868 50.764H129.874L126.159 60.9912H116.511L134.022 15.9819H143.622L161.665 60.9912ZM144.925 43.1418L138.702 26.4503L132.623 43.1418H144.925Z" fill="#384156"/>
<path d="M164.173 46.3258L173.001 45.4575C173.532 48.4484 174.593 50.6193 176.233 52.0183C177.873 53.4173 180.044 54.0927 182.794 54.0927C185.737 54.0927 187.908 53.4655 189.403 52.2595C190.899 51.0052 191.622 49.558 191.622 47.9178C191.622 46.8564 191.333 45.9399 190.706 45.2162C190.078 44.4926 188.969 43.8172 187.425 43.2866C186.364 42.9007 183.952 42.2735 180.141 41.3087C175.268 40.1027 171.843 38.6072 169.865 36.8705C167.116 34.4102 165.717 31.371 165.717 27.8011C165.717 25.4855 166.344 23.3629 167.646 21.385C168.949 19.4071 170.83 17.8634 173.242 16.8503C175.703 15.789 178.645 15.3066 182.119 15.3066C187.763 15.3066 192.008 16.5608 194.854 19.0212C197.701 21.4815 199.196 24.8101 199.341 28.9589L190.271 29.3448C189.886 27.0292 189.065 25.389 187.763 24.376C186.46 23.3629 184.579 22.8805 182.022 22.8805C179.369 22.8805 177.295 23.4111 175.799 24.5207C174.834 25.1961 174.352 26.1609 174.352 27.3187C174.352 28.38 174.786 29.2966 175.703 30.0684C176.86 31.0333 179.61 32.0463 184.048 33.0594C188.486 34.1207 191.719 35.182 193.841 36.2916C195.964 37.4011 197.604 38.9449 198.81 40.8745C200.016 42.8042 200.595 45.2162 200.595 48.0625C200.595 50.6193 199.871 53.0796 198.424 55.2987C196.977 57.566 194.951 59.2062 192.346 60.3158C189.741 61.4254 186.46 61.956 182.553 61.956C176.86 61.956 172.519 60.6535 169.431 58.0002C166.585 55.2022 164.8 51.3429 164.173 46.3258Z" fill="#384156"/>
<path d="M208.556 60.9912V15.9819H217.625V35.9539L235.957 15.9819H248.162L231.229 33.4936L249.078 60.9429H237.308L224.958 39.8132L217.577 47.3388V60.9429H208.556V60.9912Z" fill="#384156"/>
<path d="M122.299 75.3672H121.624C121.527 75.3672 121.431 75.319 121.383 75.2225L119.357 70.0607V74.5471H120.032C120.128 74.5471 120.177 74.5953 120.177 74.6918V75.2225C120.177 75.319 120.128 75.3672 120.032 75.3672H117.909C117.813 75.3672 117.765 75.319 117.765 75.2225V74.6918C117.765 74.5953 117.813 74.5471 117.909 74.5471H118.488V69.0958H117.909C117.813 69.0958 117.765 69.0476 117.765 68.9511V68.4204C117.765 68.324 117.813 68.2757 117.909 68.2757H119.743C119.839 68.2757 119.936 68.324 119.936 68.4204L122.106 74.0647L124.325 68.4204C124.374 68.324 124.422 68.2757 124.518 68.2757H126.255C126.352 68.2757 126.4 68.324 126.4 68.4204V68.9511C126.4 69.0476 126.352 69.0958 126.255 69.0958H125.676V74.5471H126.255C126.352 74.5471 126.4 74.5953 126.4 74.6918V75.2225C126.4 75.319 126.352 75.3672 126.255 75.3672H123.94C123.843 75.3672 123.795 75.319 123.795 75.2225V74.6918C123.795 74.5953 123.843 74.5471 123.94 74.5471H124.567V70.0607L122.492 75.2225C122.444 75.319 122.396 75.3672 122.299 75.3672Z" fill="#8A939D"/>
<path d="M130.259 72.2798V71.8938C130.259 71.4114 130.114 71.0737 129.825 70.9772C129.68 70.929 129.487 70.8808 129.246 70.8808C128.763 70.8808 128.474 71.122 128.377 71.5561C128.377 71.6526 128.281 71.7008 128.233 71.7008H127.557C127.461 71.7008 127.413 71.6526 127.413 71.5561C127.461 71.0255 127.654 70.6878 128.04 70.4466C128.426 70.2054 128.908 70.1089 129.487 70.1089C130.741 70.1089 131.368 70.6878 131.368 71.8456V74.5953H131.802C131.899 74.5953 131.947 74.6436 131.947 74.7401V75.2707C131.947 75.3672 131.899 75.4154 131.802 75.4154H130.548C130.452 75.4154 130.403 75.3672 130.403 75.2707L130.307 74.7883C129.921 75.319 129.39 75.5602 128.667 75.5602C128.233 75.5602 127.847 75.4637 127.557 75.2225C127.268 74.9813 127.123 74.5953 127.123 74.1129C127.123 73.4375 127.413 72.9551 127.991 72.7139C128.474 72.521 129.004 72.3762 129.68 72.3762C129.825 72.2798 130.018 72.2798 130.259 72.2798ZM130.259 73.8235V73.0034C129.583 73.0034 129.197 73.0516 129.004 73.0999C128.86 73.1481 128.715 73.2446 128.619 73.2928C128.377 73.3893 128.281 73.6305 128.281 73.92C128.281 74.4024 128.57 74.6436 129.101 74.6436C129.487 74.6436 129.728 74.5471 129.969 74.4024C130.211 74.2577 130.259 74.0164 130.259 73.8235Z" fill="#8A939D"/>
<path d="M132.575 70.929V70.3501C132.575 70.2536 132.623 70.2054 132.72 70.2054H134.167C134.264 70.2054 134.312 70.2536 134.312 70.3501L134.408 70.9772C134.794 70.3983 135.373 70.1089 136.097 70.1089C137.158 70.1089 137.737 70.6878 137.737 71.8938V74.5953H138.364C138.461 74.5953 138.509 74.6436 138.509 74.7401V75.2707C138.509 75.3672 138.461 75.4154 138.364 75.4154H136.097C136 75.4154 135.952 75.3672 135.952 75.2707V74.7401C135.952 74.6436 136 74.5953 136.097 74.5953H136.579V72.3762C136.579 71.9421 136.531 71.6044 136.435 71.4114C136.338 71.2184 136.097 71.122 135.759 71.122C135.421 71.122 135.132 71.2184 134.891 71.4596C134.65 71.7008 134.553 71.8938 134.553 72.1833V74.5953H135.18C135.277 74.5953 135.325 74.6436 135.325 74.7401V75.2707C135.325 75.3672 135.277 75.4154 135.18 75.4154H132.816C132.72 75.4154 132.672 75.3672 132.672 75.2707V74.7401C132.672 74.6436 132.72 74.5953 132.816 74.5953H133.395V71.0737H132.816C132.623 71.0737 132.575 71.0255 132.575 70.929Z" fill="#8A939D"/>
<path d="M142.078 72.2798V71.8938C142.078 71.4114 141.933 71.0737 141.644 70.9772C141.499 70.929 141.306 70.8808 141.065 70.8808C140.583 70.8808 140.293 71.122 140.197 71.5561C140.197 71.6526 140.1 71.7008 140.052 71.7008H139.377C139.28 71.7008 139.232 71.6526 139.232 71.5561C139.28 71.0255 139.473 70.6878 139.859 70.4466C140.245 70.2054 140.727 70.1089 141.306 70.1089C142.561 70.1089 143.188 70.6878 143.188 71.8456V74.5953H143.622C143.718 74.5953 143.767 74.6436 143.767 74.7401V75.2707C143.767 75.3672 143.718 75.4154 143.622 75.4154H142.368C142.271 75.4154 142.223 75.3672 142.223 75.2707L142.126 74.7883C141.74 75.319 141.21 75.5602 140.486 75.5602C140.052 75.5602 139.666 75.4637 139.377 75.2225C139.087 74.9813 138.942 74.5953 138.942 74.1129C138.942 73.4375 139.232 72.9551 139.811 72.7139C140.293 72.521 140.824 72.3762 141.499 72.3762C141.644 72.2798 141.837 72.2798 142.078 72.2798ZM142.078 73.8235V73.0034C141.403 73.0034 141.017 73.0516 140.824 73.0999C140.679 73.1481 140.534 73.2446 140.438 73.2928C140.197 73.3893 140.1 73.6305 140.1 73.92C140.1 74.4024 140.39 74.6436 140.92 74.6436C141.306 74.6436 141.547 74.5471 141.789 74.4024C142.03 74.2577 142.078 74.0164 142.078 73.8235Z" fill="#8A939D"/>
<path d="M149.266 71.0737V74.7883C149.266 75.2225 149.266 75.6566 149.218 76.0426C149.17 76.6215 148.928 77.1039 148.543 77.4416C148.157 77.7793 147.626 77.924 146.902 77.924C146.179 77.924 145.6 77.8275 145.166 77.5863C145.069 77.5381 145.069 77.4898 145.069 77.3934L145.262 76.8145C145.31 76.718 145.359 76.6697 145.455 76.718C145.889 76.9109 146.323 76.9592 146.758 76.9592C147.192 76.9592 147.529 76.8627 147.722 76.6215C147.915 76.4285 148.06 76.0426 148.06 75.5119V74.6918C147.771 75.1742 147.24 75.4637 146.565 75.4637C145.889 75.4637 145.359 75.2225 145.021 74.7883C144.683 74.3541 144.49 73.6788 144.49 72.7622C144.49 71.8456 144.683 71.1702 145.117 70.6878C145.552 70.2054 146.082 69.9642 146.709 69.9642C147.336 69.9642 147.867 70.2054 148.253 70.6396L148.35 70.2536C148.398 70.1571 148.446 70.1089 148.543 70.1089H149.797C149.893 70.1089 149.942 70.1571 149.942 70.2536V70.7843C149.942 70.8808 149.893 70.929 149.797 70.929H149.266V71.0737ZM148.108 73.4376V71.5561C148.06 71.5079 148.06 71.4597 147.964 71.4114C147.915 71.3632 147.771 71.2667 147.578 71.1702C147.385 71.0737 147.144 71.0255 146.951 71.0255C146.565 71.0255 146.275 71.1702 146.034 71.4596C145.793 71.7491 145.696 72.1833 145.696 72.7622C145.696 73.3893 145.793 73.8235 145.937 74.1612C146.082 74.4989 146.42 74.6436 146.902 74.6436C147.192 74.6436 147.481 74.5471 147.722 74.3059C147.964 74.0647 148.108 73.7752 148.108 73.4376Z" fill="#8A939D"/>
<path d="M152.885 75.5119C152.065 75.5119 151.437 75.2707 151.052 74.7883C150.666 74.3059 150.473 73.6788 150.473 72.8587C150.473 72.0385 150.666 71.4114 151.1 70.8808C151.534 70.3501 152.113 70.1089 152.885 70.1089C153.271 70.1089 153.608 70.1571 153.898 70.3019C154.187 70.4466 154.38 70.6396 154.525 70.8808C154.814 71.3632 154.959 71.8938 154.959 72.521C154.959 72.8104 154.959 72.9551 154.911 73.0034C154.863 73.0516 154.814 73.0516 154.766 73.0516H151.679C151.727 73.534 151.823 73.9682 152.065 74.2094C152.258 74.4989 152.644 74.6436 153.174 74.6436C153.56 74.6436 153.946 74.5471 154.38 74.3541C154.477 74.3059 154.525 74.3541 154.573 74.4506L154.766 74.933C154.814 75.0295 154.766 75.0778 154.67 75.126C154.139 75.3672 153.56 75.5119 152.885 75.5119ZM151.63 72.2798H153.801C153.801 71.4114 153.464 70.9772 152.788 70.9772C152.354 70.9772 152.065 71.122 151.92 71.3632C151.775 71.6044 151.63 71.9421 151.63 72.2798Z" fill="#8A939D"/>
<path d="M155.489 70.8808V70.3501C155.489 70.2536 155.537 70.2054 155.634 70.2054H157.081C157.178 70.2054 157.226 70.2536 157.226 70.3501L157.322 70.9772C157.708 70.3983 158.239 70.1089 158.963 70.1089C159.686 70.1089 160.169 70.3983 160.41 71.0255C160.796 70.3983 161.326 70.1089 162.05 70.1089C163.111 70.1089 163.69 70.6878 163.69 71.8938V74.5953H164.269C164.366 74.5953 164.414 74.6436 164.414 74.7401V75.2707C164.414 75.3672 164.366 75.4154 164.269 75.4154H161.954C161.857 75.4154 161.809 75.3672 161.809 75.2707V74.7401C161.809 74.6436 161.857 74.5953 161.954 74.5953H162.484V72.3762C162.484 71.9421 162.436 71.6044 162.34 71.4114C162.243 71.2184 162.002 71.122 161.664 71.122C161.326 71.122 161.037 71.2184 160.844 71.4114C160.651 71.6044 160.555 71.7973 160.555 72.0385V74.5471H161.037C161.134 74.5471 161.182 74.5953 161.182 74.6918V75.2225C161.182 75.319 161.134 75.3672 161.037 75.3672H158.866C158.77 75.3672 158.721 75.319 158.721 75.2225V74.6918C158.721 74.5953 158.77 74.5471 158.866 74.5471H159.349V72.3762C159.349 71.9421 159.3 71.6044 159.204 71.4114C159.107 71.2184 158.866 71.122 158.528 71.122C158.191 71.122 157.901 71.2184 157.708 71.4114C157.515 71.6044 157.419 71.8456 157.419 72.135V74.5471H158.046C158.143 74.5471 158.191 74.5953 158.191 74.6918V75.2225C158.191 75.319 158.143 75.3672 158.046 75.3672H155.682C155.586 75.3672 155.537 75.319 155.537 75.2225V74.6918C155.537 74.5953 155.586 74.5471 155.682 74.5471H156.261V71.0255H155.682C155.537 71.0737 155.489 71.0255 155.489 70.8808Z" fill="#8A939D"/>
<path d="M167.356 75.5119C166.536 75.5119 165.909 75.2707 165.523 74.7883C165.137 74.3059 164.944 73.6788 164.944 72.8587C164.944 72.0385 165.137 71.4114 165.571 70.8808C166.006 70.3501 166.585 70.1089 167.356 70.1089C167.742 70.1089 168.08 70.1571 168.369 70.3019C168.659 70.4466 168.852 70.6396 168.997 70.8808C169.286 71.3632 169.431 71.8938 169.431 72.521C169.431 72.8104 169.431 72.9551 169.383 73.0034C169.334 73.0516 169.286 73.0516 169.238 73.0516H166.15C166.199 73.534 166.295 73.9682 166.536 74.2094C166.729 74.4989 167.115 74.6436 167.646 74.6436C168.032 74.6436 168.418 74.5471 168.852 74.3541C168.948 74.3059 168.997 74.3541 169.045 74.4506L169.238 74.933C169.286 75.0295 169.238 75.0778 169.141 75.126C168.611 75.3672 168.032 75.5119 167.356 75.5119ZM166.102 72.2798H168.273C168.273 71.4114 167.935 70.9772 167.26 70.9772C166.826 70.9772 166.536 71.122 166.392 71.3632C166.199 71.6044 166.15 71.9421 166.102 72.2798Z" fill="#8A939D"/>
<path d="M169.962 70.929V70.3501C169.962 70.2536 170.01 70.2054 170.107 70.2054H171.554C171.65 70.2054 171.699 70.2536 171.699 70.3501L171.795 70.9772C172.181 70.3983 172.76 70.1089 173.484 70.1089C174.545 70.1089 175.124 70.6878 175.124 71.8938V74.5953H175.751C175.847 74.5953 175.896 74.6436 175.896 74.7401V75.2707C175.896 75.3672 175.847 75.4154 175.751 75.4154H173.484C173.387 75.4154 173.339 75.3672 173.339 75.2707V74.7401C173.339 74.6436 173.387 74.5953 173.484 74.5953H173.966V72.3762C173.966 71.9421 173.918 71.6044 173.821 71.4114C173.725 71.2184 173.484 71.122 173.146 71.122C172.808 71.122 172.519 71.2184 172.277 71.4596C172.036 71.6526 171.94 71.8938 171.94 72.1833V74.5953H172.567C172.663 74.5953 172.712 74.6436 172.712 74.7401V75.2707C172.712 75.3672 172.663 75.4154 172.567 75.4154H170.203C170.107 75.4154 170.058 75.3672 170.058 75.2707V74.7401C170.058 74.6436 170.107 74.5953 170.203 74.5953H170.782V71.0737H170.203C170.01 71.0737 169.962 71.0255 169.962 70.929Z" fill="#8A939D"/>
<path d="M178.115 71.0737V73.727C178.115 74.0647 178.163 74.3059 178.26 74.4506C178.356 74.5953 178.501 74.6918 178.742 74.6918C178.983 74.6918 179.176 74.6436 179.417 74.5471C179.514 74.4989 179.562 74.5471 179.562 74.6436L179.755 75.126C179.755 75.126 179.755 75.1743 179.755 75.2225C179.755 75.2707 179.707 75.319 179.659 75.3672C179.321 75.5119 178.935 75.6084 178.452 75.6084C177.825 75.6084 177.439 75.4637 177.246 75.126C177.102 74.933 177.005 74.6918 177.005 74.4989C176.957 74.2094 176.957 73.9682 176.957 73.6788V71.1702H176.378C176.282 71.1702 176.233 71.122 176.233 71.0255V70.4948C176.233 70.3983 176.282 70.3501 176.378 70.3501H176.957V68.9511C176.957 68.8546 177.005 68.8064 177.102 68.8064H177.97C178.067 68.8064 178.115 68.8546 178.115 68.9511V70.3501H179.176C179.273 70.3501 179.321 70.3983 179.321 70.4948V71.0255C179.321 71.122 179.273 71.1702 179.176 71.1702H178.115V71.0737Z" fill="#8A939D"/>
<path d="M184.965 68.0827C185.496 68.0827 185.978 68.1792 186.509 68.3239C186.605 68.3722 186.653 68.4204 186.653 68.5169V69.9642C186.653 70.0606 186.605 70.1089 186.509 70.1089H185.93C185.833 70.1089 185.785 70.0606 185.785 69.9642L185.833 69.2405C185.544 69.0958 185.254 68.9993 184.917 68.9993C184.579 68.9993 184.29 69.0958 184.097 69.2405C183.904 69.3853 183.807 69.6265 183.807 69.9159C183.807 70.2054 183.904 70.4466 184.097 70.6396C184.29 70.8325 184.531 70.9772 184.917 71.122C185.254 71.2667 185.496 71.3632 185.64 71.4114C185.737 71.4596 185.93 71.5561 186.171 71.7008C186.412 71.8456 186.557 71.9421 186.653 72.0868C186.75 72.2315 186.846 72.3762 186.943 72.6174C187.039 72.8104 187.088 73.0516 187.088 73.3411C187.088 74.0164 186.846 74.5953 186.412 74.9813C185.978 75.3672 185.351 75.5602 184.531 75.5602C183.952 75.5602 183.373 75.4637 182.794 75.2707C182.698 75.2225 182.649 75.1742 182.649 75.0777V73.3893C182.649 73.2928 182.698 73.2446 182.794 73.2446H183.373C183.47 73.2446 183.518 73.2928 183.518 73.3893L183.47 74.2577C183.566 74.3541 183.711 74.4024 183.904 74.4989C184.097 74.5953 184.338 74.5953 184.579 74.5953C185.447 74.5953 185.882 74.2577 185.882 73.534C185.882 73.1963 185.785 72.9069 185.544 72.7139C185.303 72.521 185.013 72.3762 184.627 72.2315C184.241 72.0868 184 71.9903 183.807 71.8938C183.614 71.7973 183.421 71.6526 183.228 71.5079C182.842 71.2184 182.649 70.7843 182.649 70.1571C182.649 69.53 182.842 69.0476 183.277 68.6616C183.662 68.2757 184.241 68.0827 184.965 68.0827Z" fill="#8A939D"/>
<path d="M189.162 70.3501L190.368 74.1612L191.477 71.0737H190.947C190.85 71.0737 190.802 71.0255 190.802 70.929V70.3984C190.802 70.3019 190.85 70.2536 190.947 70.2536H192.491C192.587 70.2536 192.635 70.3019 192.635 70.3501C192.684 70.3983 192.684 70.4466 192.684 70.4948C192.684 70.5431 192.684 70.5913 192.684 70.5913L190.464 76.4285C190.368 76.6697 190.271 76.9109 190.175 77.0557C190.078 77.2004 189.982 77.3451 189.886 77.4898C189.644 77.7793 189.258 77.9722 188.728 77.9722C188.245 77.9722 187.811 77.8757 187.473 77.731C187.425 77.6828 187.377 77.6828 187.377 77.6346C187.377 77.5863 187.377 77.5381 187.377 77.5381L187.57 77.0074C187.618 76.9109 187.666 76.8627 187.763 76.9109C188.101 77.0074 188.39 77.0557 188.583 77.0557C188.776 77.0557 188.969 77.0074 189.065 76.9109C189.162 76.8145 189.307 76.5732 189.403 76.2355L189.644 75.5602L188.052 71.122H187.522C187.425 71.122 187.377 71.0737 187.377 70.9772V70.4466C187.377 70.3501 187.425 70.3019 187.522 70.3019H188.872C189.065 70.2054 189.114 70.2536 189.162 70.3501Z" fill="#8A939D"/>
<path d="M193.986 70.5431C194.324 70.2536 194.806 70.0606 195.337 70.0606C195.868 70.0606 196.35 70.1089 196.736 70.2536C196.832 70.3018 196.881 70.3501 196.881 70.4466V71.5561C196.881 71.6526 196.832 71.7008 196.736 71.7008H196.109C196.012 71.7008 195.964 71.6526 195.964 71.5561L196.012 71.0255C195.819 70.929 195.578 70.8807 195.337 70.8807C194.758 70.8807 194.517 71.0737 194.517 71.4596C194.517 71.6526 194.613 71.8456 194.806 71.942C194.999 72.0385 195.192 72.135 195.482 72.2315C195.723 72.328 196.012 72.3762 196.253 72.4727C196.495 72.5692 196.736 72.7139 196.929 72.9551C197.122 73.1963 197.218 73.4858 197.218 73.8235C197.218 74.3541 197.025 74.7883 196.639 75.0777C196.253 75.3672 195.771 75.5119 195.096 75.5119C194.613 75.5119 194.131 75.4637 193.6 75.3189C193.504 75.2707 193.455 75.2225 193.455 75.126V74.0164C193.455 73.92 193.504 73.8717 193.6 73.8717H194.227C194.324 73.8717 194.372 73.92 194.372 74.0164L194.324 74.5471C194.517 74.6918 194.758 74.7401 195.144 74.7401C195.771 74.7401 196.061 74.4988 196.061 74.0647C196.061 73.8235 195.964 73.6787 195.771 73.534C195.578 73.3893 195.385 73.2928 195.144 73.2446C194.903 73.1963 194.613 73.0998 194.372 73.0034C194.131 72.9069 193.89 72.7621 193.697 72.5209C193.504 72.2797 193.407 71.9903 193.407 71.6526C193.455 71.2184 193.6 70.8325 193.986 70.5431Z" fill="#8A939D"/>
<path d="M199.437 71.0737V73.727C199.437 74.0647 199.485 74.3059 199.582 74.4506C199.678 74.5953 199.823 74.6918 200.064 74.6918C200.305 74.6918 200.498 74.6436 200.74 74.5471C200.836 74.4989 200.884 74.5471 200.884 74.6436L201.077 75.126C201.077 75.126 201.077 75.1743 201.077 75.2225C201.077 75.2707 201.029 75.319 200.981 75.3672C200.643 75.5119 200.257 75.6084 199.775 75.6084C199.148 75.6084 198.762 75.4637 198.569 75.126C198.424 74.933 198.328 74.6918 198.328 74.4989C198.279 74.2094 198.279 73.9682 198.279 73.6788V71.1702H197.7C197.604 71.1702 197.556 71.122 197.556 71.0255V70.4948C197.556 70.3983 197.604 70.3501 197.7 70.3501H198.279V68.9511C198.279 68.8546 198.328 68.8064 198.424 68.8064H199.292C199.389 68.8064 199.437 68.8546 199.437 68.9511V70.3501H200.498C200.595 70.3501 200.643 70.3983 200.643 70.4948V71.0255C200.643 71.122 200.595 71.1702 200.498 71.1702H199.437V71.0737Z" fill="#8A939D"/>
<path d="M204.02 75.5119C203.2 75.5119 202.573 75.2707 202.187 74.7883C201.801 74.3059 201.608 73.6788 201.608 72.8587C201.608 72.0385 201.801 71.4114 202.236 70.8808C202.67 70.3501 203.249 70.1089 204.02 70.1089C204.406 70.1089 204.744 70.1571 205.034 70.3019C205.323 70.4466 205.516 70.6396 205.661 70.8808C205.95 71.3632 206.095 71.8938 206.095 72.521C206.095 72.8104 206.095 72.9551 206.047 73.0034C205.998 73.0516 205.95 73.0516 205.902 73.0516H202.814C202.863 73.534 202.959 73.9682 203.2 74.2094C203.393 74.4989 203.779 74.6436 204.31 74.6436C204.696 74.6436 205.082 74.5471 205.516 74.3541C205.612 74.3059 205.661 74.3541 205.709 74.4506L205.902 74.933C205.95 75.0295 205.902 75.0778 205.805 75.126C205.275 75.3672 204.696 75.5119 204.02 75.5119ZM202.766 72.2798H204.937C204.937 71.4114 204.599 70.9772 203.924 70.9772C203.49 70.9772 203.2 71.122 203.056 71.3632C202.911 71.6044 202.766 71.9421 202.766 72.2798Z" fill="#8A939D"/>
<path d="M206.625 70.8808V70.3501C206.625 70.2536 206.673 70.2054 206.77 70.2054H208.217C208.313 70.2054 208.362 70.2536 208.362 70.3501L208.458 70.9772C208.844 70.3983 209.375 70.1089 210.098 70.1089C210.822 70.1089 211.304 70.3983 211.546 71.0255C211.932 70.3983 212.462 70.1089 213.186 70.1089C214.247 70.1089 214.826 70.6878 214.826 71.8938V74.5953H215.405C215.501 74.5953 215.55 74.6436 215.55 74.7401V75.2707C215.55 75.3672 215.501 75.4154 215.405 75.4154H213.089C212.993 75.4154 212.945 75.3672 212.945 75.2707V74.7401C212.945 74.6436 212.993 74.5953 213.089 74.5953H213.62V72.3762C213.62 71.9421 213.572 71.6044 213.475 71.4114C213.379 71.2184 213.138 71.122 212.8 71.122C212.462 71.122 212.173 71.2184 211.98 71.4114C211.787 71.6044 211.69 71.7973 211.69 72.0385V74.5471H212.173C212.269 74.5471 212.317 74.5953 212.317 74.6918V75.2225C212.317 75.319 212.269 75.3672 212.173 75.3672H210.002C209.905 75.3672 209.857 75.319 209.857 75.2225V74.6918C209.857 74.5953 209.905 74.5471 210.002 74.5471H210.484V72.3762C210.484 71.9421 210.436 71.6044 210.34 71.4114C210.243 71.2184 210.002 71.122 209.664 71.122C209.327 71.122 209.037 71.2184 208.844 71.4114C208.651 71.6044 208.555 71.8456 208.555 72.135V74.5471H209.182C209.278 74.5471 209.327 74.5953 209.327 74.6918V75.2225C209.327 75.319 209.278 75.3672 209.182 75.3672H206.818C206.721 75.3672 206.673 75.319 206.673 75.2225V74.6918C206.673 74.5953 206.721 74.5471 206.818 74.5471H207.397V71.0255H206.818C206.673 71.0737 206.625 71.0255 206.625 70.8808Z" fill="#8A939D"/>
<defs>
<linearGradient id="paint0_linear_909_986" x1="64.2349" y1="23.7265" x2="64.2349" y2="0" gradientUnits="userSpaceOnUse">
<stop stop-color="#384156"/>
<stop offset="0.6837" stop-color="#624FFA"/>
<stop offset="0.9949" stop-color="#384156"/>
</linearGradient>
<linearGradient id="paint1_linear_909_986" x1="43.6936" y1="15.3913" x2="84.777" y2="15.3913" gradientUnits="userSpaceOnUse">
<stop stop-color="#150958"/>
<stop offset="1" stop-color="#624FFA"/>
</linearGradient>
<linearGradient id="paint2_linear_909_986" x1="49.9598" y1="73.4284" x2="49.9598" y2="25.9756" gradientUnits="userSpaceOnUse">
<stop stop-color="#384156"/>
<stop offset="0.6837" stop-color="#624FFA"/>
<stop offset="0.9949" stop-color="#384156"/>
</linearGradient>
<linearGradient id="paint3_linear_909_986" x1="34.8168" y1="73.4284" x2="34.8168" y2="25.9756" gradientUnits="userSpaceOnUse">
<stop stop-color="#150958"/>
<stop offset="1" stop-color="#624FFA"/>
</linearGradient>
<linearGradient id="paint4_linear_909_986" x1="20.5417" y1="30.7826" x2="20.5417" y2="0" gradientUnits="userSpaceOnUse">
<stop stop-color="#384156"/>
<stop offset="0.6837" stop-color="#624FFA"/>
<stop offset="0.9949" stop-color="#384156"/>
</linearGradient>
<linearGradient id="paint5_linear_909_986" x1="0" y1="11.8632" x2="41.0834" y2="11.8632" gradientUnits="userSpaceOnUse">
<stop stop-color="#150958"/>
<stop offset="1" stop-color="#624FFA"/>
</linearGradient>
</defs>
</svg>
