<svg width="154" height="199" viewBox="0 0 154 199" fill="none" xmlns="http://www.w3.org/2000/svg">
<path d="M154 0L79.3866 43.093L84.7 8.24035L154 0Z" fill="url(#paint0_linear_1069_23446)"/>
<path d="M154 0L112.168 55.9263L79.3416 43.093L154 0Z" fill="url(#paint1_linear_1069_23446)"/>
<path d="M77 47.1906V133.377L104.513 69.2099L77 47.1906Z" fill="url(#paint2_linear_1069_23446)"/>
<path d="M49.4872 69.2099L77 47.1906V133.377L49.4872 69.2099Z" fill="url(#paint3_linear_1069_23446)"/>
<path d="M74.6135 43.093L0 0L41.8322 55.9263L74.6135 43.093Z" fill="url(#paint4_linear_1069_23446)"/>
<path d="M69.345 8.28538L74.6585 43.138L0 0L69.345 8.28538Z" fill="url(#paint5_linear_1069_23446)"/>
<path d="M12.4731 182.549V147.651H0V140.536H33.3667V147.651H20.9386V182.549H12.4731Z" fill="#384156"/>
<path d="M72.362 182.549H63.131L59.4836 173.002H42.6877L39.2204 182.549H30.2146L46.5602 140.536H55.521L72.362 182.549ZM56.7368 165.888L50.9281 150.308L45.2544 165.888H56.7368Z" fill="#384156"/>
<path d="M74.7035 168.86L82.9438 168.049C83.4392 170.841 84.4298 172.867 85.9608 174.173C87.4918 175.479 89.5181 176.109 92.0848 176.109C94.8315 176.109 96.8579 175.524 98.2538 174.398C99.6497 173.227 100.325 171.877 100.325 170.346C100.325 169.355 100.055 168.499 99.4696 167.824C98.8842 167.149 97.8485 166.518 96.4076 166.023C95.4169 165.663 93.1655 165.077 89.6082 164.177C85.0602 163.051 81.8631 161.655 80.0169 160.034C77.4503 157.737 76.1444 154.901 76.1444 151.568C76.1444 149.407 76.7298 147.426 77.9456 145.579C79.1614 143.733 80.9175 142.292 83.169 141.347C85.4655 140.356 88.2122 139.906 91.4543 139.906C96.7228 139.906 100.685 141.077 103.342 143.373C105.999 145.67 107.395 148.777 107.53 152.649L99.0643 153.009C98.7041 150.848 97.9386 149.317 96.7228 148.371C95.507 147.426 93.7509 146.975 91.3643 146.975C88.8877 146.975 86.9514 147.471 85.5555 148.506C84.6549 149.137 84.2046 150.037 84.2046 151.118C84.2046 152.109 84.6099 152.964 85.4655 153.685C86.5462 154.585 89.1128 155.531 93.2555 156.477C97.3982 157.467 100.415 158.458 102.396 159.494C104.378 160.529 105.909 161.97 107.034 163.771C108.16 165.572 108.701 167.824 108.701 170.481C108.701 172.867 108.025 175.164 106.674 177.235C105.323 179.351 103.432 180.882 101.001 181.918C98.569 182.954 95.507 183.449 91.8596 183.449C86.5462 183.449 82.4935 182.233 79.6117 179.757C76.9549 177.145 75.2889 173.543 74.7035 168.86Z" fill="#384156"/>
<path d="M116.13 182.549V140.536H124.596V159.178L141.707 140.536H153.099L137.294 156.882L153.955 182.503H142.968L131.44 162.781L124.551 169.805V182.503H116.13V182.549Z" fill="#384156"/>
<path d="M35.6181 195.967H34.9877C34.8977 195.967 34.8076 195.922 34.7626 195.832L32.8713 191.014V195.202H33.5018C33.5918 195.202 33.6368 195.247 33.6368 195.337V195.832C33.6368 195.922 33.5918 195.967 33.5018 195.967H31.5205C31.4304 195.967 31.3854 195.922 31.3854 195.832V195.337C31.3854 195.247 31.4304 195.202 31.5205 195.202H32.0608V190.114H31.5205C31.4304 190.114 31.3854 190.068 31.3854 189.978V189.483C31.3854 189.393 31.4304 189.348 31.5205 189.348H33.2316C33.3216 189.348 33.4117 189.393 33.4117 189.483L35.438 194.752L37.5093 189.483C37.5544 189.393 37.5994 189.348 37.6895 189.348H39.3105C39.4006 189.348 39.4456 189.393 39.4456 189.483V189.978C39.4456 190.068 39.4006 190.114 39.3105 190.114H38.7702V195.202H39.3105C39.4006 195.202 39.4456 195.247 39.4456 195.337V195.832C39.4456 195.922 39.4006 195.967 39.3105 195.967H37.1491C37.0591 195.967 37.014 195.922 37.014 195.832V195.337C37.014 195.247 37.0591 195.202 37.1491 195.202H37.7345V191.014L35.7982 195.832C35.7532 195.922 35.7082 195.967 35.6181 195.967Z" fill="#8A939D"/>
<path d="M43.0479 193.085V192.725C43.0479 192.275 42.9128 191.96 42.6426 191.87C42.5075 191.825 42.3274 191.78 42.1023 191.78C41.652 191.78 41.3818 192.005 41.2917 192.41C41.2917 192.5 41.2017 192.545 41.1567 192.545H40.5262C40.4362 192.545 40.3912 192.5 40.3912 192.41C40.4362 191.915 40.6163 191.599 40.9765 191.374C41.3368 191.149 41.7871 191.059 42.3274 191.059C43.4982 191.059 44.0836 191.599 44.0836 192.68V195.247H44.4888C44.5789 195.247 44.6239 195.292 44.6239 195.382V195.877C44.6239 195.967 44.5789 196.012 44.4888 196.012H43.3181C43.228 196.012 43.183 195.967 43.183 195.877L43.0929 195.427C42.7327 195.922 42.2374 196.147 41.5619 196.147C41.1566 196.147 40.7964 196.057 40.5262 195.832C40.2561 195.607 40.121 195.247 40.121 194.797C40.121 194.166 40.3912 193.716 40.9315 193.491C41.3818 193.311 41.8771 193.175 42.5075 193.175C42.6426 193.085 42.8227 193.085 43.0479 193.085ZM43.0479 194.526V193.761C42.4175 193.761 42.0572 193.806 41.8771 193.851C41.742 193.896 41.607 193.986 41.5169 194.031C41.2917 194.121 41.2017 194.346 41.2017 194.616C41.2017 195.067 41.4719 195.292 41.9672 195.292C42.3274 195.292 42.5526 195.202 42.7777 195.067C43.0029 194.932 43.0479 194.706 43.0479 194.526Z" fill="#8A939D"/>
<path d="M45.2094 191.825V191.284C45.2094 191.194 45.2544 191.149 45.3444 191.149H46.6953C46.7854 191.149 46.8304 191.194 46.8304 191.284L46.9205 191.87C47.2807 191.329 47.821 191.059 48.4965 191.059C49.4871 191.059 50.0275 191.599 50.0275 192.725V195.247H50.6129C50.7029 195.247 50.7479 195.292 50.7479 195.382V195.877C50.7479 195.967 50.7029 196.012 50.6129 196.012H48.4965C48.4064 196.012 48.3614 195.967 48.3614 195.877V195.382C48.3614 195.292 48.4064 195.247 48.4965 195.247H48.9468V193.175C48.9468 192.77 48.9017 192.455 48.8117 192.275C48.7216 192.095 48.4965 192.005 48.1813 192.005C47.8661 192.005 47.5959 192.095 47.3707 192.32C47.1456 192.545 47.0555 192.725 47.0555 192.995V195.247H47.6409C47.731 195.247 47.776 195.292 47.776 195.382V195.877C47.776 195.967 47.731 196.012 47.6409 196.012H45.4345C45.3444 196.012 45.2994 195.967 45.2994 195.877V195.382C45.2994 195.292 45.3444 195.247 45.4345 195.247H45.9748V191.96H45.4345C45.2544 191.96 45.2094 191.915 45.2094 191.825Z" fill="#8A939D"/>
<path d="M54.0801 193.085V192.725C54.0801 192.275 53.945 191.96 53.6749 191.87C53.5398 191.825 53.3596 191.78 53.1345 191.78C52.6842 191.78 52.414 192.005 52.324 192.41C52.324 192.5 52.2339 192.545 52.1889 192.545H51.5585C51.4684 192.545 51.4234 192.5 51.4234 192.41C51.4684 191.915 51.6485 191.599 52.0088 191.374C52.369 191.149 52.8193 191.059 53.3596 191.059C54.5304 191.059 55.1158 191.599 55.1158 192.68V195.247H55.521C55.6111 195.247 55.6561 195.292 55.6561 195.382V195.877C55.6561 195.967 55.6111 196.012 55.521 196.012H54.3503C54.2602 196.012 54.2152 195.967 54.2152 195.877L54.1251 195.427C53.7649 195.922 53.2696 196.147 52.5941 196.147C52.1889 196.147 51.8286 196.057 51.5585 195.832C51.2883 195.607 51.1532 195.247 51.1532 194.797C51.1532 194.166 51.4234 193.716 51.9637 193.491C52.414 193.311 52.9094 193.175 53.5398 193.175C53.6749 193.085 53.855 193.085 54.0801 193.085ZM54.0801 194.526V193.761C53.4497 193.761 53.0895 193.806 52.9093 193.851C52.7743 193.896 52.6392 193.986 52.5491 194.031C52.324 194.121 52.2339 194.346 52.2339 194.616C52.2339 195.067 52.5041 195.292 52.9994 195.292C53.3596 195.292 53.5848 195.202 53.8099 195.067C54.0351 194.932 54.0801 194.706 54.0801 194.526Z" fill="#8A939D"/>
<path d="M60.7894 191.96V195.427C60.7894 195.832 60.7895 196.237 60.7444 196.598C60.6994 197.138 60.4742 197.588 60.114 197.904C59.7538 198.219 59.2584 198.354 58.583 198.354C57.9076 198.354 57.3672 198.264 56.962 198.039C56.8719 197.994 56.8719 197.949 56.8719 197.859L57.052 197.318C57.0971 197.228 57.1421 197.183 57.2321 197.228C57.6374 197.408 58.0427 197.453 58.4479 197.453C58.8532 197.453 59.1684 197.363 59.3485 197.138C59.5286 196.958 59.6637 196.598 59.6637 196.102V195.337C59.3935 195.787 58.8982 196.057 58.2678 196.057C57.6374 196.057 57.1421 195.832 56.8269 195.427C56.5117 195.022 56.3315 194.391 56.3315 193.536C56.3315 192.68 56.5117 192.05 56.9169 191.599C57.3222 191.149 57.8175 190.924 58.4029 190.924C58.9883 190.924 59.4836 191.149 59.8438 191.554L59.9339 191.194C59.9789 191.104 60.024 191.059 60.114 191.059H61.2848C61.3748 191.059 61.4199 191.104 61.4199 191.194V191.69C61.4199 191.78 61.3748 191.825 61.2848 191.825H60.7894V191.96ZM59.7087 194.166V192.41C59.6637 192.365 59.6637 192.32 59.5737 192.275C59.5286 192.23 59.3935 192.14 59.2134 192.05C59.0333 191.96 58.8082 191.915 58.6281 191.915C58.2678 191.915 57.9976 192.05 57.7725 192.32C57.5473 192.59 57.4573 192.995 57.4573 193.536C57.4573 194.121 57.5473 194.526 57.6824 194.842C57.8175 195.157 58.1327 195.292 58.583 195.292C58.8532 195.292 59.1234 195.202 59.3485 194.977C59.5737 194.752 59.7087 194.481 59.7087 194.166Z" fill="#8A939D"/>
<path d="M64.1666 196.102C63.4011 196.102 62.8158 195.877 62.4555 195.427C62.0953 194.977 61.9152 194.391 61.9152 193.626C61.9152 192.86 62.0953 192.275 62.5005 191.78C62.9058 191.284 63.4462 191.059 64.1666 191.059C64.5269 191.059 64.8421 191.104 65.1122 191.239C65.3824 191.374 65.5625 191.554 65.6976 191.78C65.9678 192.23 66.1029 192.725 66.1029 193.311C66.1029 193.581 66.1029 193.716 66.0579 193.761C66.0128 193.806 65.9678 193.806 65.9228 193.806H63.0409C63.0859 194.256 63.176 194.661 63.4011 194.887C63.5812 195.157 63.9415 195.292 64.4368 195.292C64.797 195.292 65.1573 195.202 65.5625 195.022C65.6526 194.977 65.6976 195.022 65.7426 195.112L65.9228 195.562C65.9678 195.652 65.9228 195.697 65.8327 195.742C65.3374 195.967 64.797 196.102 64.1666 196.102ZM62.9959 193.085H65.0222C65.0222 192.275 64.707 191.87 64.0766 191.87C63.6713 191.87 63.4011 192.005 63.266 192.23C63.131 192.455 62.9959 192.77 62.9959 193.085Z" fill="#8A939D"/>
<path d="M66.5983 191.78V191.284C66.5983 191.194 66.6433 191.149 66.7333 191.149H68.0842C68.1743 191.149 68.2193 191.194 68.2193 191.284L68.3094 191.87C68.6696 191.329 69.1649 191.059 69.8403 191.059C70.5158 191.059 70.9661 191.329 71.1912 191.915C71.5515 191.329 72.0468 191.059 72.7222 191.059C73.7129 191.059 74.2532 191.599 74.2532 192.725V195.247H74.7936C74.8836 195.247 74.9287 195.292 74.9287 195.382V195.877C74.9287 195.967 74.8836 196.012 74.7936 196.012H72.6322C72.5421 196.012 72.4971 195.967 72.4971 195.877V195.382C72.4971 195.292 72.5421 195.247 72.6322 195.247H73.1275V193.175C73.1275 192.77 73.0825 192.455 72.9924 192.275C72.9023 192.095 72.6772 192.005 72.362 192.005C72.0468 192.005 71.7766 192.095 71.5965 192.275C71.4164 192.455 71.3263 192.635 71.3263 192.86V195.202H71.7766C71.8667 195.202 71.9117 195.247 71.9117 195.337V195.832C71.9117 195.922 71.8667 195.967 71.7766 195.967H69.7503C69.6603 195.967 69.6152 195.922 69.6152 195.832V195.337C69.6152 195.247 69.6603 195.202 69.7503 195.202H70.2006V193.175C70.2006 192.77 70.1556 192.455 70.0655 192.275C69.9754 192.095 69.7503 192.005 69.4351 192.005C69.1199 192.005 68.8497 192.095 68.6696 192.275C68.4895 192.455 68.3994 192.68 68.3994 192.95V195.202H68.9848C69.0749 195.202 69.1199 195.247 69.1199 195.337V195.832C69.1199 195.922 69.0749 195.967 68.9848 195.967H66.7784C66.6883 195.967 66.6433 195.922 66.6433 195.832V195.337C66.6433 195.247 66.6883 195.202 66.7784 195.202H67.3187V191.915H66.7784C66.6433 191.96 66.5983 191.915 66.5983 191.78Z" fill="#8A939D"/>
<path d="M77.6754 196.102C76.9099 196.102 76.3245 195.877 75.9643 195.427C75.6041 194.977 75.424 194.391 75.424 193.626C75.424 192.86 75.6041 192.275 76.0093 191.78C76.4146 191.284 76.9549 191.059 77.6754 191.059C78.0356 191.059 78.3508 191.104 78.621 191.239C78.8912 191.374 79.0713 191.554 79.2064 191.78C79.4766 192.23 79.6117 192.725 79.6117 193.311C79.6117 193.581 79.6117 193.716 79.5666 193.761C79.5216 193.806 79.4766 193.806 79.4316 193.806H76.5497C76.5947 194.256 76.6848 194.661 76.9099 194.887C77.09 195.157 77.4503 195.292 77.9456 195.292C78.3058 195.292 78.666 195.202 79.0713 195.022C79.1614 194.977 79.2064 195.022 79.2514 195.112L79.4316 195.562C79.4766 195.652 79.4316 195.697 79.3415 195.742C78.8462 195.967 78.3058 196.102 77.6754 196.102ZM76.5047 193.085H78.531C78.531 192.275 78.2158 191.87 77.5853 191.87C77.1801 191.87 76.9099 192.005 76.7748 192.23C76.5947 192.455 76.5497 192.77 76.5047 193.085Z" fill="#8A939D"/>
<path d="M80.1069 191.825V191.284C80.1069 191.194 80.152 191.149 80.242 191.149H81.5929C81.683 191.149 81.728 191.194 81.728 191.284L81.818 191.87C82.1783 191.329 82.7186 191.059 83.3941 191.059C84.3847 191.059 84.925 191.599 84.925 192.725V195.247H85.5104C85.6005 195.247 85.6455 195.292 85.6455 195.382V195.877C85.6455 195.967 85.6005 196.012 85.5104 196.012H83.3941C83.304 196.012 83.259 195.967 83.259 195.877V195.382C83.259 195.292 83.304 195.247 83.3941 195.247H83.8444V193.175C83.8444 192.77 83.7993 192.455 83.7093 192.275C83.6192 192.095 83.3941 192.005 83.0789 192.005C82.7636 192.005 82.4935 192.095 82.2683 192.32C82.0432 192.5 81.9531 192.725 81.9531 192.995V195.247H82.5385C82.6286 195.247 82.6736 195.292 82.6736 195.382V195.877C82.6736 195.967 82.6286 196.012 82.5385 196.012H80.3321C80.242 196.012 80.197 195.967 80.197 195.877V195.382C80.197 195.292 80.242 195.247 80.3321 195.247H80.8724V191.96H80.3321C80.152 191.96 80.1069 191.915 80.1069 191.825Z" fill="#8A939D"/>
<path d="M87.7169 191.96V194.436C87.7169 194.751 87.762 194.977 87.852 195.112C87.9421 195.247 88.0772 195.337 88.3023 195.337C88.5275 195.337 88.7076 195.292 88.9327 195.202C89.0228 195.157 89.0678 195.202 89.0678 195.292L89.2479 195.742C89.2479 195.742 89.2479 195.787 89.2479 195.832C89.2479 195.877 89.2029 195.922 89.1579 195.967C88.8427 196.102 88.4824 196.192 88.0321 196.192C87.4468 196.192 87.0865 196.057 86.9064 195.742C86.7713 195.562 86.6813 195.337 86.6813 195.157C86.6362 194.887 86.6363 194.661 86.6363 194.391V192.05H86.0959C86.0058 192.05 85.9608 192.005 85.9608 191.915V191.419C85.9608 191.329 86.0058 191.284 86.0959 191.284H86.6363V189.978C86.6363 189.888 86.6813 189.843 86.7713 189.843H87.5819C87.6719 189.843 87.7169 189.888 87.7169 189.978V191.284H88.7076C88.7976 191.284 88.8427 191.329 88.8427 191.419V191.915C88.8427 192.005 88.7976 192.05 88.7076 192.05H87.7169V191.96Z" fill="#8A939D"/>
<path d="M94.1111 189.168C94.6064 189.168 95.0567 189.258 95.552 189.393C95.6421 189.438 95.6871 189.483 95.6871 189.573V190.924C95.6871 191.014 95.6421 191.059 95.552 191.059H95.0117C94.9216 191.059 94.8766 191.014 94.8766 190.924L94.9216 190.249C94.6515 190.114 94.3813 190.023 94.0661 190.023C93.7509 190.023 93.4807 190.114 93.3006 190.249C93.1205 190.384 93.0304 190.609 93.0304 190.879C93.0304 191.149 93.1205 191.374 93.3006 191.554C93.4807 191.735 93.7059 191.87 94.0661 192.005C94.3813 192.14 94.6064 192.23 94.7415 192.275C94.8316 192.32 95.0117 192.41 95.2368 192.545C95.462 192.68 95.5971 192.77 95.6871 192.905C95.7772 193.04 95.8672 193.175 95.9573 193.401C96.0474 193.581 96.0924 193.806 96.0924 194.076C96.0924 194.706 95.8672 195.247 95.462 195.607C95.0567 195.967 94.4713 196.147 93.7058 196.147C93.1655 196.147 92.6251 196.057 92.0848 195.877C91.9947 195.832 91.9497 195.787 91.9497 195.697V194.121C91.9497 194.031 91.9947 193.986 92.0848 193.986H92.6251C92.7152 193.986 92.7602 194.031 92.7602 194.121L92.7152 194.932C92.8053 195.022 92.9403 195.067 93.1205 195.157C93.3006 195.247 93.5257 195.247 93.7509 195.247C94.5614 195.247 94.9667 194.932 94.9667 194.256C94.9667 193.941 94.8766 193.671 94.6515 193.491C94.4263 193.311 94.1561 193.175 93.7959 193.04C93.4357 192.905 93.2105 192.815 93.0304 192.725C92.8503 192.635 92.6702 192.5 92.4901 192.365C92.1298 192.095 91.9497 191.69 91.9497 191.104C91.9497 190.519 92.1298 190.068 92.5351 189.708C92.8953 189.348 93.4357 189.168 94.1111 189.168Z" fill="#8A939D"/>
<path d="M98.0286 191.284L99.1544 194.842L100.19 191.96H99.6947C99.6047 191.96 99.5596 191.915 99.5596 191.825V191.329C99.5596 191.239 99.6047 191.194 99.6947 191.194H101.136C101.226 191.194 101.271 191.239 101.271 191.284C101.316 191.329 101.316 191.374 101.316 191.419C101.316 191.464 101.316 191.509 101.316 191.509L99.2444 196.958C99.1544 197.183 99.0643 197.408 98.9742 197.543C98.8842 197.678 98.7941 197.814 98.7041 197.949C98.4789 198.219 98.1187 198.399 97.6234 198.399C97.1731 198.399 96.7678 198.309 96.4526 198.174C96.4076 198.129 96.3625 198.129 96.3625 198.084C96.3625 198.039 96.3625 197.994 96.3625 197.994L96.5427 197.498C96.5877 197.408 96.6327 197.363 96.7228 197.408C97.038 197.498 97.3082 197.543 97.4883 197.543C97.6684 197.543 97.8485 197.498 97.9386 197.408C98.0286 197.318 98.1637 197.093 98.2538 196.778L98.4789 196.147L96.993 192.005H96.4976C96.4076 192.005 96.3625 191.96 96.3625 191.87V191.374C96.3625 191.284 96.4076 191.239 96.4976 191.239H97.7584C97.9386 191.149 97.9836 191.194 98.0286 191.284Z" fill="#8A939D"/>
<path d="M102.532 191.464C102.847 191.194 103.297 191.014 103.792 191.014C104.288 191.014 104.738 191.059 105.098 191.194C105.188 191.239 105.233 191.284 105.233 191.374V192.41C105.233 192.5 105.188 192.545 105.098 192.545H104.513C104.423 192.545 104.378 192.5 104.378 192.41L104.423 191.915C104.243 191.825 104.018 191.78 103.792 191.78C103.252 191.78 103.027 191.96 103.027 192.32C103.027 192.5 103.117 192.68 103.297 192.77C103.477 192.86 103.657 192.95 103.927 193.04C104.153 193.13 104.423 193.175 104.648 193.266C104.873 193.356 105.098 193.491 105.278 193.716C105.458 193.941 105.549 194.211 105.549 194.526C105.549 195.022 105.368 195.427 105.008 195.697C104.648 195.967 104.198 196.102 103.567 196.102C103.117 196.102 102.667 196.057 102.171 195.922C102.081 195.877 102.036 195.832 102.036 195.742V194.706C102.036 194.616 102.081 194.571 102.171 194.571H102.757C102.847 194.571 102.892 194.616 102.892 194.706L102.847 195.202C103.027 195.337 103.252 195.382 103.612 195.382C104.198 195.382 104.468 195.157 104.468 194.752C104.468 194.526 104.378 194.391 104.198 194.256C104.018 194.121 103.837 194.031 103.612 193.986C103.387 193.941 103.117 193.851 102.892 193.761C102.667 193.671 102.441 193.536 102.261 193.311C102.081 193.085 101.991 192.815 101.991 192.5C102.036 192.095 102.171 191.735 102.532 191.464Z" fill="#8A939D"/>
<path d="M107.62 191.96V194.436C107.62 194.751 107.665 194.977 107.755 195.112C107.845 195.247 107.98 195.337 108.205 195.337C108.43 195.337 108.61 195.292 108.836 195.202C108.926 195.157 108.971 195.202 108.971 195.292L109.151 195.742C109.151 195.742 109.151 195.787 109.151 195.832C109.151 195.877 109.106 195.922 109.061 195.967C108.746 196.102 108.385 196.192 107.935 196.192C107.35 196.192 106.989 196.057 106.809 195.742C106.674 195.562 106.584 195.337 106.584 195.157C106.539 194.887 106.539 194.661 106.539 194.391V192.05H105.999C105.909 192.05 105.864 192.005 105.864 191.915V191.419C105.864 191.329 105.909 191.284 105.999 191.284H106.539V189.978C106.539 189.888 106.584 189.843 106.674 189.843H107.485C107.575 189.843 107.62 189.888 107.62 189.978V191.284H108.61C108.701 191.284 108.746 191.329 108.746 191.419V191.915C108.746 192.005 108.701 192.05 108.61 192.05H107.62V191.96Z" fill="#8A939D"/>
<path d="M111.898 196.102C111.132 196.102 110.547 195.877 110.187 195.427C109.826 194.977 109.646 194.391 109.646 193.626C109.646 192.86 109.826 192.275 110.232 191.78C110.637 191.284 111.177 191.059 111.898 191.059C112.258 191.059 112.573 191.104 112.843 191.239C113.113 191.374 113.294 191.554 113.429 191.78C113.699 192.23 113.834 192.725 113.834 193.311C113.834 193.581 113.834 193.716 113.789 193.761C113.744 193.806 113.699 193.806 113.654 193.806H110.772C110.817 194.256 110.907 194.661 111.132 194.887C111.312 195.157 111.673 195.292 112.168 195.292C112.528 195.292 112.888 195.202 113.294 195.022C113.384 194.977 113.429 195.022 113.474 195.112L113.654 195.562C113.699 195.652 113.654 195.697 113.564 195.742C113.068 195.967 112.528 196.102 111.898 196.102ZM110.727 193.085H112.753C112.753 192.275 112.438 191.87 111.808 191.87C111.402 191.87 111.132 192.005 110.997 192.23C110.862 192.455 110.727 192.77 110.727 193.085Z" fill="#8A939D"/>
<path d="M114.329 191.78V191.284C114.329 191.194 114.374 191.149 114.464 191.149H115.815C115.905 191.149 115.95 191.194 115.95 191.284L116.04 191.87C116.401 191.329 116.896 191.059 117.571 191.059C118.247 191.059 118.697 191.329 118.922 191.915C119.282 191.329 119.778 191.059 120.453 191.059C121.444 191.059 121.984 191.599 121.984 192.725V195.247H122.525C122.615 195.247 122.66 195.292 122.66 195.382V195.877C122.66 195.967 122.615 196.012 122.525 196.012H120.363C120.273 196.012 120.228 195.967 120.228 195.877V195.382C120.228 195.292 120.273 195.247 120.363 195.247H120.858V193.175C120.858 192.77 120.813 192.455 120.723 192.275C120.633 192.095 120.408 192.005 120.093 192.005C119.778 192.005 119.508 192.095 119.327 192.275C119.147 192.455 119.057 192.635 119.057 192.86V195.202H119.508C119.598 195.202 119.643 195.247 119.643 195.337V195.832C119.643 195.922 119.598 195.967 119.508 195.967H117.481C117.391 195.967 117.346 195.922 117.346 195.832V195.337C117.346 195.247 117.391 195.202 117.481 195.202H117.932V193.175C117.932 192.77 117.887 192.455 117.796 192.275C117.706 192.095 117.481 192.005 117.166 192.005C116.851 192.005 116.581 192.095 116.401 192.275C116.22 192.455 116.13 192.68 116.13 192.95V195.202H116.716C116.806 195.202 116.851 195.247 116.851 195.337V195.832C116.851 195.922 116.806 195.967 116.716 195.967H114.509C114.419 195.967 114.374 195.922 114.374 195.832V195.337C114.374 195.247 114.419 195.202 114.509 195.202H115.05V191.915H114.509C114.374 191.96 114.329 191.915 114.329 191.78Z" fill="#8A939D"/>
<defs>
<linearGradient id="paint0_linear_1069_23446" x1="116.685" y1="43.1" x2="116.685" y2="0" gradientUnits="userSpaceOnUse">
<stop stop-color="#384156"/>
<stop offset="0.6837" stop-color="#624FFA"/>
<stop offset="0.9949" stop-color="#384156"/>
</linearGradient>
<linearGradient id="paint1_linear_1069_23446" x1="79.3704" y1="27.9589" x2="154" y2="27.9589" gradientUnits="userSpaceOnUse">
<stop stop-color="#150958"/>
<stop offset="1" stop-color="#624FFA"/>
</linearGradient>
<linearGradient id="paint2_linear_1069_23446" x1="90.7533" y1="133.386" x2="90.7533" y2="47.1857" gradientUnits="userSpaceOnUse">
<stop stop-color="#384156"/>
<stop offset="0.6837" stop-color="#624FFA"/>
<stop offset="0.9949" stop-color="#384156"/>
</linearGradient>
<linearGradient id="paint3_linear_1069_23446" x1="63.2468" y1="133.386" x2="63.2468" y2="47.1857" gradientUnits="userSpaceOnUse">
<stop stop-color="#150958"/>
<stop offset="1" stop-color="#624FFA"/>
</linearGradient>
<linearGradient id="paint4_linear_1069_23446" x1="37.3148" y1="55.9178" x2="37.3148" y2="0" gradientUnits="userSpaceOnUse">
<stop stop-color="#384156"/>
<stop offset="0.6837" stop-color="#624FFA"/>
<stop offset="0.9949" stop-color="#384156"/>
</linearGradient>
<linearGradient id="paint5_linear_1069_23446" x1="0" y1="21.55" x2="74.6297" y2="21.55" gradientUnits="userSpaceOnUse">
<stop stop-color="#150958"/>
<stop offset="1" stop-color="#624FFA"/>
</linearGradient>
</defs>
</svg>
