<svg width="178" height="223" viewBox="0 0 178 223" fill="none" xmlns="http://www.w3.org/2000/svg">
<defs>
<filter id="filter0_d_1069_23476" x="0" y="0" width="178" height="222.399" filterUnits="userSpaceOnUse" color-interpolation-filters="sRGB">
<feFlood flood-opacity="0" result="BackgroundImageFix"/>
<feColorMatrix in="SourceAlpha" type="matrix" values="0 0 0 0 0 0 0 0 0 0 0 0 0 0 0 0 0 0 127 0" result="hardAlpha"/>
<feOffset dx="5" dy="5"/>
<feGaussianBlur stdDeviation="6"/>
<feComposite in2="hardAlpha" operator="out"/>
<feColorMatrix type="matrix" values="0 0 0 0 0 0 0 0 0 0 0 0 0 0 0 0 0 0 0.25 0"/>
<feBlend mode="normal" in2="BackgroundImageFix" result="effect1_dropShadow_1069_23476"/>
<feBlend mode="normal" in="SourceGraphic" in2="effect1_dropShadow_1069_23476" result="shape"/>
</filter>
<linearGradient id="paint0_linear_1069_23476" x1="123.685" y1="50.1" x2="123.685" y2="7" gradientUnits="userSpaceOnUse">
<stop stop-color="#384156"/>
<stop offset="0.6837" stop-color="#624FFA"/>
<stop offset="0.9949" stop-color="#384156"/>
</linearGradient>
<linearGradient id="paint1_linear_1069_23476" x1="86.3701" y1="34.9589" x2="161" y2="34.9589" gradientUnits="userSpaceOnUse">
<stop stop-color="#150958"/>
<stop offset="1" stop-color="#624FFA"/>
</linearGradient>
<linearGradient id="paint2_linear_1069_23476" x1="97.7533" y1="140.386" x2="97.7533" y2="54.1857" gradientUnits="userSpaceOnUse">
<stop stop-color="#384156"/>
<stop offset="0.6837" stop-color="#624FFA"/>
<stop offset="0.9949" stop-color="#384156"/>
</linearGradient>
<linearGradient id="paint3_linear_1069_23476" x1="70.2469" y1="140.386" x2="70.2469" y2="54.1857" gradientUnits="userSpaceOnUse">
<stop stop-color="#150958"/>
<stop offset="1" stop-color="#624FFA"/>
</linearGradient>
<linearGradient id="paint4_linear_1069_23476" x1="44.3148" y1="62.9178" x2="44.3148" y2="7" gradientUnits="userSpaceOnUse">
<stop stop-color="#384156"/>
<stop offset="0.6837" stop-color="#624FFA"/>
<stop offset="0.9949" stop-color="#384156"/>
</linearGradient>
<linearGradient id="paint5_linear_1069_23476" x1="7" y1="28.55" x2="81.6297" y2="28.55" gradientUnits="userSpaceOnUse">
<stop stop-color="#150958"/>
<stop offset="1" stop-color="#624FFA"/>
</linearGradient>
</defs>
    <g filter="url(#filter0_d_1069_23476)">
        <path d="M161 7L86.3867 50.093L91.7002 15.2404L161 7Z" fill="url(#paint0_linear_1069_23476)"/>
        <path d="M161 7L119.168 62.9263L86.3413 50.093L161 7Z" fill="url(#paint1_linear_1069_23476)"/>
        <path d="M84 54.1906V140.377L111.513 76.2099L84 54.1906Z" fill="url(#paint2_linear_1069_23476)"/>
        <path d="M56.4873 76.2099L84.0002 54.1906V140.377L56.4873 76.2099Z" fill="url(#paint3_linear_1069_23476)"/>
        <path d="M81.6135 50.093L7 7L48.8322 62.9263L81.6135 50.093Z" fill="url(#paint4_linear_1069_23476)"/>
        <path d="M76.345 15.2854L81.6585 50.138L7 7L76.345 15.2854Z" fill="url(#paint5_linear_1069_23476)"/>
        <path d="M19.4731 189.549V154.651H7V147.536H40.3667V154.651H27.9386V189.549H19.4731Z" fill="white"/>
        <path d="M79.3622 189.549H70.1312L66.4839 180.002H49.6879L46.2207 189.549H37.2148L53.5605 147.536H62.5213L79.3622 189.549ZM63.7371 172.888L57.9283 157.308L52.2546 172.888H63.7371Z" fill="white"/>
        <path d="M81.7036 175.86L89.944 175.049C90.4393 177.841 91.4299 179.867 92.9609 181.173C94.4919 182.479 96.5182 183.109 99.0849 183.109C101.832 183.109 103.858 182.524 105.254 181.398C106.65 180.227 107.325 178.877 107.325 177.346C107.325 176.355 107.055 175.499 106.47 174.824C105.884 174.149 104.849 173.518 103.408 173.023C102.417 172.663 100.166 172.077 96.6083 171.177C92.0603 170.051 88.8633 168.655 87.0171 167.034C84.4504 164.737 83.1445 161.901 83.1445 158.568C83.1445 156.407 83.7299 154.426 84.9457 152.579C86.1615 150.733 87.9176 149.292 90.1691 148.347C92.4656 147.356 95.2124 146.906 98.4545 146.906C103.723 146.906 107.685 148.077 110.342 150.373C112.999 152.67 114.395 155.777 114.53 159.649L106.064 160.009C105.704 157.848 104.939 156.317 103.723 155.371C102.507 154.426 100.751 153.975 98.3644 153.975C95.8878 153.975 93.9516 154.471 92.5556 155.506C91.6551 156.137 91.2048 157.037 91.2048 158.118C91.2048 159.109 91.61 159.964 92.4656 160.685C93.5463 161.585 96.1129 162.531 100.256 163.477C104.398 164.467 107.415 165.458 109.397 166.494C111.378 167.529 112.909 168.97 114.035 170.771C115.16 172.572 115.701 174.824 115.701 177.481C115.701 179.867 115.025 182.164 113.674 184.235C112.323 186.351 110.432 187.882 108.001 188.918C105.569 189.954 102.507 190.449 98.8597 190.449C93.5463 190.449 89.4937 189.233 86.6118 186.757C83.9551 184.145 82.289 180.543 81.7036 175.86Z" fill="white"/>
        <path d="M123.13 189.549V147.536H131.596V166.178L148.707 147.536H160.099L144.294 163.882L160.955 189.503H149.968L138.44 169.781L131.551 176.805V189.503H123.13V189.549Z" fill="white"/>
        <path d="M42.618 202.967H41.9876C41.8975 202.967 41.8075 202.922 41.7624 202.832L39.8712 198.014V202.202H40.5016C40.5917 202.202 40.6367 202.247 40.6367 202.337V202.832C40.6367 202.922 40.5917 202.967 40.5016 202.967H38.5203C38.4303 202.967 38.3853 202.922 38.3853 202.832V202.337C38.3853 202.247 38.4303 202.202 38.5203 202.202H39.0607V197.114H38.5203C38.4303 197.114 38.3853 197.068 38.3853 196.978V196.483C38.3853 196.393 38.4303 196.348 38.5203 196.348H40.2314C40.3215 196.348 40.4116 196.393 40.4116 196.483L42.4379 201.752L44.5092 196.483C44.5542 196.393 44.5993 196.348 44.6893 196.348H46.3104C46.4004 196.348 46.4455 196.393 46.4455 196.483V196.978C46.4455 197.068 46.4004 197.114 46.3104 197.114H45.77V202.202H46.3104C46.4004 202.202 46.4455 202.247 46.4455 202.337V202.832C46.4455 202.922 46.4004 202.967 46.3104 202.967H44.149C44.0589 202.967 44.0139 202.922 44.0139 202.832V202.337C44.0139 202.247 44.0589 202.202 44.149 202.202H44.7344V198.014L42.7981 202.832C42.7531 202.922 42.708 202.967 42.618 202.967Z" fill="#8A939D"/>
        <path d="M50.048 200.085V199.725C50.048 199.275 49.9129 198.96 49.6427 198.87C49.5077 198.825 49.3275 198.78 49.1024 198.78C48.6521 198.78 48.3819 199.005 48.2919 199.41C48.2919 199.5 48.2018 199.545 48.1568 199.545H47.5264C47.4363 199.545 47.3913 199.5 47.3913 199.41C47.4363 198.915 47.6164 198.599 47.9767 198.374C48.3369 198.149 48.7872 198.059 49.3275 198.059C50.4983 198.059 51.0837 198.599 51.0837 199.68V202.247H51.4889C51.579 202.247 51.624 202.292 51.624 202.382V202.877C51.624 202.967 51.579 203.012 51.4889 203.012H50.3182C50.2281 203.012 50.1831 202.967 50.1831 202.877L50.093 202.427C49.7328 202.922 49.2375 203.147 48.562 203.147C48.1568 203.147 47.7965 203.057 47.5264 202.832C47.2562 202.607 47.1211 202.247 47.1211 201.797C47.1211 201.166 47.3913 200.716 47.9316 200.491C48.3819 200.311 48.8773 200.175 49.5077 200.175C49.6428 200.085 49.8228 200.085 50.048 200.085ZM50.048 201.526V200.761C49.4176 200.761 49.0574 200.806 48.8772 200.851C48.7422 200.896 48.6071 200.986 48.517 201.031C48.2919 201.121 48.2018 201.346 48.2018 201.616C48.2018 202.067 48.472 202.292 48.9673 202.292C49.3275 202.292 49.5527 202.202 49.7778 202.067C50.003 201.932 50.048 201.706 50.048 201.526Z" fill="#8A939D"/>
        <path d="M52.209 198.825V198.284C52.209 198.194 52.254 198.149 52.3441 198.149H53.6949C53.785 198.149 53.83 198.194 53.83 198.284L53.9201 198.87C54.2803 198.329 54.8207 198.059 55.4961 198.059C56.4868 198.059 57.0271 198.599 57.0271 199.725V202.247H57.6125C57.7026 202.247 57.7476 202.292 57.7476 202.382V202.877C57.7476 202.967 57.7026 203.012 57.6125 203.012H55.4961C55.4061 203.012 55.361 202.967 55.361 202.877V202.382C55.361 202.292 55.4061 202.247 55.4961 202.247H55.9464V200.175C55.9464 199.77 55.9014 199.455 55.8113 199.275C55.7213 199.095 55.4961 199.005 55.1809 199.005C54.8657 199.005 54.5955 199.095 54.3704 199.32C54.1452 199.545 54.0552 199.725 54.0552 199.995V202.247H54.6405C54.7306 202.247 54.7756 202.292 54.7756 202.382V202.877C54.7756 202.967 54.7306 203.012 54.6405 203.012H52.4341C52.3441 203.012 52.299 202.967 52.299 202.877V202.382C52.299 202.292 52.3441 202.247 52.4341 202.247H52.9745V198.96H52.4341C52.254 198.96 52.209 198.915 52.209 198.825Z" fill="#8A939D"/>
        <path d="M61.0797 200.085V199.725C61.0797 199.275 60.9447 198.96 60.6745 198.87C60.5394 198.825 60.3593 198.78 60.1341 198.78C59.6838 198.78 59.4137 199.005 59.3236 199.41C59.3236 199.5 59.2336 199.545 59.1885 199.545H58.5581C58.468 199.545 58.423 199.5 58.423 199.41C58.4681 198.915 58.6482 198.599 59.0084 198.374C59.3686 198.149 59.8189 198.059 60.3593 198.059C61.53 198.059 62.1154 198.599 62.1154 199.68V202.247H62.5207C62.6107 202.247 62.6558 202.292 62.6558 202.382V202.877C62.6558 202.967 62.6107 203.012 62.5207 203.012H61.3499C61.2599 203.012 61.2148 202.967 61.2148 202.877L61.1248 202.427C60.7645 202.922 60.2692 203.147 59.5938 203.147C59.1885 203.147 58.8283 203.057 58.5581 202.832C58.2879 202.607 58.1528 202.247 58.1528 201.797C58.1528 201.166 58.423 200.716 58.9634 200.491C59.4137 200.311 59.909 200.175 60.5394 200.175C60.6745 200.085 60.8546 200.085 61.0797 200.085ZM61.0797 201.526V200.761C60.4493 200.761 60.0891 200.806 59.909 200.851C59.7739 200.896 59.6388 200.986 59.5488 201.031C59.3236 201.121 59.2335 201.346 59.2335 201.616C59.2335 202.067 59.5037 202.292 59.999 202.292C60.3593 202.292 60.5844 202.202 60.8096 202.067C61.0347 201.932 61.0797 201.706 61.0797 201.526Z" fill="#8A939D"/>
        <path d="M67.7894 198.96V202.427C67.7894 202.832 67.7895 203.237 67.7444 203.598C67.6994 204.138 67.4742 204.588 67.114 204.904C66.7538 205.219 66.2584 205.354 65.583 205.354C64.9076 205.354 64.3672 205.264 63.962 205.039C63.8719 204.994 63.8719 204.949 63.8719 204.859L64.052 204.318C64.0971 204.228 64.1421 204.183 64.2321 204.228C64.6374 204.408 65.0427 204.453 65.4479 204.453C65.8532 204.453 66.1684 204.363 66.3485 204.138C66.5286 203.958 66.6637 203.598 66.6637 203.102V202.337C66.3935 202.787 65.8982 203.057 65.2678 203.057C64.6374 203.057 64.1421 202.832 63.8269 202.427C63.5117 202.022 63.3315 201.391 63.3315 200.536C63.3315 199.68 63.5117 199.05 63.9169 198.599C64.3222 198.149 64.8175 197.924 65.4029 197.924C65.9883 197.924 66.4836 198.149 66.8438 198.554L66.9339 198.194C66.9789 198.104 67.024 198.059 67.114 198.059H68.2848C68.3748 198.059 68.4199 198.104 68.4199 198.194V198.69C68.4199 198.78 68.3748 198.825 68.2848 198.825H67.7894V198.96ZM66.7087 201.166V199.41C66.6637 199.365 66.6637 199.32 66.5737 199.275C66.5286 199.23 66.3935 199.14 66.2134 199.05C66.0333 198.96 65.8082 198.915 65.6281 198.915C65.2678 198.915 64.9976 199.05 64.7725 199.32C64.5473 199.59 64.4573 199.995 64.4573 200.536C64.4573 201.121 64.5473 201.526 64.6824 201.842C64.8175 202.157 65.1327 202.292 65.583 202.292C65.8532 202.292 66.1234 202.202 66.3485 201.977C66.5737 201.752 66.7087 201.481 66.7087 201.166Z" fill="#8A939D"/>
        <path d="M71.1665 203.102C70.401 203.102 69.8156 202.877 69.4554 202.427C69.0952 201.977 68.915 201.391 68.915 200.626C68.915 199.86 69.0952 199.275 69.5004 198.78C69.9057 198.284 70.446 198.059 71.1665 198.059C71.5267 198.059 71.8419 198.104 72.1121 198.239C72.3823 198.374 72.5624 198.554 72.6975 198.78C72.9677 199.23 73.1028 199.725 73.1028 200.311C73.1028 200.581 73.1028 200.716 73.0577 200.761C73.0127 200.806 72.9677 200.806 72.9227 200.806H70.0408C70.0858 201.256 70.1759 201.661 70.401 201.887C70.5811 202.157 70.9413 202.292 71.4367 202.292C71.7969 202.292 72.1571 202.202 72.5624 202.022C72.6525 201.977 72.6975 202.022 72.7425 202.112L72.9227 202.562C72.9677 202.652 72.9226 202.697 72.8326 202.742C72.3373 202.967 71.7969 203.102 71.1665 203.102ZM69.9958 200.085H72.0221C72.0221 199.275 71.7068 198.87 71.0764 198.87C70.6712 198.87 70.401 199.005 70.2659 199.23C70.1308 199.455 69.9958 199.77 69.9958 200.085Z" fill="#8A939D"/>
        <path d="M73.5981 198.78V198.284C73.5981 198.194 73.6432 198.149 73.7332 198.149H75.0841C75.1742 198.149 75.2192 198.194 75.2192 198.284L75.3093 198.87C75.6695 198.329 76.1648 198.059 76.8402 198.059C77.5157 198.059 77.966 198.329 78.1911 198.915C78.5513 198.329 79.0467 198.059 79.7221 198.059C80.7128 198.059 81.2531 198.599 81.2531 199.725V202.247H81.7934C81.8835 202.247 81.9286 202.292 81.9286 202.382V202.877C81.9286 202.967 81.8835 203.012 81.7934 203.012H79.632C79.542 203.012 79.497 202.967 79.497 202.877V202.382C79.497 202.292 79.542 202.247 79.632 202.247H80.1274V200.175C80.1274 199.77 80.0823 199.455 79.9923 199.275C79.9022 199.095 79.6771 199.005 79.3619 199.005C79.0467 199.005 78.7765 199.095 78.5964 199.275C78.4163 199.455 78.3262 199.635 78.3262 199.86V202.202H78.7765C78.8666 202.202 78.9116 202.247 78.9116 202.337V202.832C78.9116 202.922 78.8666 202.967 78.7765 202.967H76.7502C76.6601 202.967 76.6151 202.922 76.6151 202.832V202.337C76.6151 202.247 76.6601 202.202 76.7502 202.202H77.2005V200.175C77.2005 199.77 77.1554 199.455 77.0654 199.275C76.9753 199.095 76.7502 199.005 76.435 199.005C76.1198 199.005 75.8496 199.095 75.6695 199.275C75.4894 199.455 75.3993 199.68 75.3993 199.95V202.202H75.9847C76.0747 202.202 76.1198 202.247 76.1198 202.337V202.832C76.1198 202.922 76.0747 202.967 75.9847 202.967H73.7782C73.6882 202.967 73.6432 202.922 73.6432 202.832V202.337C73.6432 202.247 73.6882 202.202 73.7782 202.202H74.3186V198.915H73.7782C73.6432 198.96 73.5981 198.915 73.5981 198.78Z" fill="#8A939D"/>
        <path d="M84.6753 203.102C83.9098 203.102 83.3244 202.877 82.9642 202.427C82.604 201.977 82.4238 201.391 82.4238 200.626C82.4238 199.86 82.6039 199.275 83.0092 198.78C83.4145 198.284 83.9548 198.059 84.6753 198.059C85.0355 198.059 85.3507 198.104 85.6209 198.239C85.8911 198.374 86.0712 198.554 86.2063 198.78C86.4765 199.23 86.6115 199.725 86.6115 200.311C86.6115 200.581 86.6116 200.716 86.5665 200.761C86.5215 200.806 86.4765 200.806 86.4314 200.806H83.5496C83.5946 201.256 83.6846 201.661 83.9098 201.887C84.0899 202.157 84.4501 202.292 84.9455 202.292C85.3057 202.292 85.6659 202.202 86.0712 202.022C86.1612 201.977 86.2063 202.022 86.2513 202.112L86.4314 202.562C86.4765 202.652 86.4314 202.697 86.3414 202.742C85.8461 202.967 85.3057 203.102 84.6753 203.102ZM83.5045 200.085H85.5309C85.5309 199.275 85.2156 198.87 84.5852 198.87C84.18 198.87 83.9098 199.005 83.7747 199.23C83.5946 199.455 83.5496 199.77 83.5045 200.085Z" fill="#8A939D"/>
        <path d="M87.1069 198.825V198.284C87.1069 198.194 87.152 198.149 87.242 198.149H88.5929C88.683 198.149 88.728 198.194 88.728 198.284L88.818 198.87C89.1783 198.329 89.7186 198.059 90.3941 198.059C91.3847 198.059 91.925 198.599 91.925 199.725V202.247H92.5104C92.6005 202.247 92.6455 202.292 92.6455 202.382V202.877C92.6455 202.967 92.6005 203.012 92.5104 203.012H90.3941C90.304 203.012 90.259 202.967 90.259 202.877V202.382C90.259 202.292 90.304 202.247 90.3941 202.247H90.8444V200.175C90.8444 199.77 90.7993 199.455 90.7093 199.275C90.6192 199.095 90.3941 199.005 90.0789 199.005C89.7636 199.005 89.4935 199.095 89.2683 199.32C89.0432 199.5 88.9531 199.725 88.9531 199.995V202.247H89.5385C89.6286 202.247 89.6736 202.292 89.6736 202.382V202.877C89.6736 202.967 89.6286 203.012 89.5385 203.012H87.3321C87.242 203.012 87.197 202.967 87.197 202.877V202.382C87.197 202.292 87.242 202.247 87.3321 202.247H87.8724V198.96H87.3321C87.152 198.96 87.1069 198.915 87.1069 198.825Z" fill="#8A939D"/>
        <path d="M94.7166 198.96V201.436C94.7166 201.751 94.7616 201.977 94.8517 202.112C94.9417 202.247 95.0768 202.337 95.3019 202.337C95.5271 202.337 95.7072 202.292 95.9324 202.202C96.0224 202.157 96.0675 202.202 96.0675 202.292L96.2476 202.742C96.2476 202.742 96.2476 202.787 96.2476 202.832C96.2476 202.877 96.2025 202.922 96.1575 202.967C95.8423 203.102 95.4821 203.192 95.0318 203.192C94.4464 203.192 94.0862 203.057 93.9061 202.742C93.771 202.562 93.6809 202.337 93.6809 202.157C93.6359 201.887 93.6359 201.661 93.6359 201.391V199.05H93.0955C93.0055 199.05 92.9604 199.005 92.9604 198.915V198.419C92.9604 198.329 93.0055 198.284 93.0955 198.284H93.6359V196.978C93.6359 196.888 93.6809 196.843 93.771 196.843H94.5815C94.6715 196.843 94.7166 196.888 94.7166 196.978V198.284H95.7072C95.7973 198.284 95.8423 198.329 95.8423 198.419V198.915C95.8423 199.005 95.7973 199.05 95.7072 199.05H94.7166V198.96Z" fill="#8A939D"/>
        <path d="M101.111 196.168C101.606 196.168 102.057 196.258 102.552 196.393C102.642 196.438 102.687 196.483 102.687 196.573V197.924C102.687 198.014 102.642 198.059 102.552 198.059H102.012C101.922 198.059 101.877 198.014 101.877 197.924L101.922 197.249C101.651 197.114 101.381 197.023 101.066 197.023C100.751 197.023 100.481 197.114 100.301 197.249C100.12 197.384 100.03 197.609 100.03 197.879C100.03 198.149 100.12 198.374 100.301 198.554C100.481 198.735 100.706 198.87 101.066 199.005C101.381 199.14 101.606 199.23 101.742 199.275C101.832 199.32 102.012 199.41 102.237 199.545C102.462 199.68 102.597 199.77 102.687 199.905C102.777 200.04 102.867 200.175 102.957 200.401C103.047 200.581 103.092 200.806 103.092 201.076C103.092 201.706 102.867 202.247 102.462 202.607C102.057 202.967 101.471 203.147 100.706 203.147C100.165 203.147 99.6251 203.057 99.0848 202.877C98.9947 202.832 98.9497 202.787 98.9497 202.697V201.121C98.9497 201.031 98.9947 200.986 99.0848 200.986H99.6251C99.7152 200.986 99.7602 201.031 99.7602 201.121L99.7152 201.932C99.8053 202.022 99.9403 202.067 100.12 202.157C100.301 202.247 100.526 202.247 100.751 202.247C101.561 202.247 101.967 201.932 101.967 201.256C101.967 200.941 101.877 200.671 101.651 200.491C101.426 200.311 101.156 200.175 100.796 200.04C100.436 199.905 100.211 199.815 100.03 199.725C99.8503 199.635 99.6702 199.5 99.4901 199.365C99.1298 199.095 98.9497 198.69 98.9497 198.104C98.9497 197.519 99.1298 197.068 99.5351 196.708C99.8953 196.348 100.436 196.168 101.111 196.168Z" fill="#8A939D"/>
        <path d="M105.028 198.284L106.154 201.842L107.19 198.96H106.694C106.604 198.96 106.559 198.915 106.559 198.825V198.329C106.559 198.239 106.604 198.194 106.694 198.194H108.135C108.225 198.194 108.271 198.239 108.271 198.284C108.316 198.329 108.316 198.374 108.316 198.419C108.316 198.464 108.316 198.509 108.316 198.509L106.244 203.958C106.154 204.183 106.064 204.408 105.974 204.543C105.884 204.678 105.794 204.814 105.704 204.949C105.479 205.219 105.118 205.399 104.623 205.399C104.173 205.399 103.768 205.309 103.452 205.174C103.407 205.129 103.362 205.129 103.362 205.084C103.362 205.039 103.362 204.994 103.362 204.994L103.542 204.498C103.587 204.408 103.632 204.363 103.723 204.408C104.038 204.498 104.308 204.543 104.488 204.543C104.668 204.543 104.848 204.498 104.938 204.408C105.028 204.318 105.163 204.093 105.254 203.778L105.479 203.147L103.993 199.005H103.497C103.407 199.005 103.362 198.96 103.362 198.87V198.374C103.362 198.284 103.407 198.239 103.497 198.239H104.758C104.938 198.149 104.983 198.194 105.028 198.284Z" fill="#8A939D"/>
        <path d="M109.532 198.464C109.847 198.194 110.297 198.014 110.792 198.014C111.288 198.014 111.738 198.059 112.098 198.194C112.188 198.239 112.233 198.284 112.233 198.374V199.41C112.233 199.5 112.188 199.545 112.098 199.545H111.513C111.423 199.545 111.378 199.5 111.378 199.41L111.423 198.915C111.243 198.825 111.018 198.78 110.792 198.78C110.252 198.78 110.027 198.96 110.027 199.32C110.027 199.5 110.117 199.68 110.297 199.77C110.477 199.86 110.657 199.95 110.927 200.04C111.153 200.13 111.423 200.175 111.648 200.266C111.873 200.356 112.098 200.491 112.278 200.716C112.458 200.941 112.549 201.211 112.549 201.526C112.549 202.022 112.368 202.427 112.008 202.697C111.648 202.967 111.198 203.102 110.567 203.102C110.117 203.102 109.667 203.057 109.171 202.922C109.081 202.877 109.036 202.832 109.036 202.742V201.706C109.036 201.616 109.081 201.571 109.171 201.571H109.757C109.847 201.571 109.892 201.616 109.892 201.706L109.847 202.202C110.027 202.337 110.252 202.382 110.612 202.382C111.198 202.382 111.468 202.157 111.468 201.752C111.468 201.526 111.378 201.391 111.198 201.256C111.018 201.121 110.837 201.031 110.612 200.986C110.387 200.941 110.117 200.851 109.892 200.761C109.667 200.671 109.441 200.536 109.261 200.311C109.081 200.085 108.991 199.815 108.991 199.5C109.036 199.095 109.171 198.735 109.532 198.464Z" fill="#8A939D"/>
        <path d="M114.62 198.96V201.436C114.62 201.751 114.665 201.977 114.755 202.112C114.845 202.247 114.98 202.337 115.205 202.337C115.43 202.337 115.611 202.292 115.836 202.202C115.926 202.157 115.971 202.202 115.971 202.292L116.151 202.742C116.151 202.742 116.151 202.787 116.151 202.832C116.151 202.877 116.106 202.922 116.061 202.967C115.746 203.102 115.385 203.192 114.935 203.192C114.35 203.192 113.99 203.057 113.809 202.742C113.674 202.562 113.584 202.337 113.584 202.157C113.539 201.887 113.539 201.661 113.539 201.391V199.05H112.999C112.909 199.05 112.864 199.005 112.864 198.915V198.419C112.864 198.329 112.909 198.284 112.999 198.284H113.539V196.978C113.539 196.888 113.584 196.843 113.674 196.843H114.485C114.575 196.843 114.62 196.888 114.62 196.978V198.284H115.611C115.701 198.284 115.746 198.329 115.746 198.419V198.915C115.746 199.005 115.701 199.05 115.611 199.05H114.62V198.96Z" fill="#8A939D"/>
        <path d="M118.897 203.102C118.132 203.102 117.547 202.877 117.186 202.427C116.826 201.977 116.646 201.391 116.646 200.626C116.646 199.86 116.826 199.275 117.231 198.78C117.637 198.284 118.177 198.059 118.897 198.059C119.258 198.059 119.573 198.104 119.843 198.239C120.113 198.374 120.293 198.554 120.428 198.78C120.699 199.23 120.834 199.725 120.834 200.311C120.834 200.581 120.834 200.716 120.789 200.761C120.744 200.806 120.699 200.806 120.654 200.806H117.772C117.817 201.256 117.907 201.661 118.132 201.887C118.312 202.157 118.672 202.292 119.168 202.292C119.528 202.292 119.888 202.202 120.293 202.022C120.383 201.977 120.428 202.022 120.473 202.112L120.654 202.562C120.699 202.652 120.654 202.697 120.564 202.742C120.068 202.967 119.528 203.102 118.897 203.102ZM117.727 200.085H119.753C119.753 199.275 119.438 198.87 118.807 198.87C118.402 198.87 118.132 199.005 117.997 199.23C117.862 199.455 117.727 199.77 117.727 200.085Z" fill="#8A939D"/>
        <path d="M121.329 198.78V198.284C121.329 198.194 121.374 198.149 121.464 198.149H122.815C122.905 198.149 122.95 198.194 122.95 198.284L123.04 198.87C123.4 198.329 123.896 198.059 124.571 198.059C125.247 198.059 125.697 198.329 125.922 198.915C126.282 198.329 126.778 198.059 127.453 198.059C128.444 198.059 128.984 198.599 128.984 199.725V202.247H129.524C129.614 202.247 129.66 202.292 129.66 202.382V202.877C129.66 202.967 129.614 203.012 129.524 203.012H127.363C127.273 203.012 127.228 202.967 127.228 202.877V202.382C127.228 202.292 127.273 202.247 127.363 202.247H127.858V200.175C127.858 199.77 127.813 199.455 127.723 199.275C127.633 199.095 127.408 199.005 127.093 199.005C126.778 199.005 126.507 199.095 126.327 199.275C126.147 199.455 126.057 199.635 126.057 199.86V202.202H126.507C126.598 202.202 126.643 202.247 126.643 202.337V202.832C126.643 202.922 126.598 202.967 126.507 202.967H124.481C124.391 202.967 124.346 202.922 124.346 202.832V202.337C124.346 202.247 124.391 202.202 124.481 202.202H124.931V200.175C124.931 199.77 124.886 199.455 124.796 199.275C124.706 199.095 124.481 199.005 124.166 199.005C123.851 199.005 123.581 199.095 123.4 199.275C123.22 199.455 123.13 199.68 123.13 199.95V202.202H123.716C123.806 202.202 123.851 202.247 123.851 202.337V202.832C123.851 202.922 123.806 202.967 123.716 202.967H121.509C121.419 202.967 121.374 202.922 121.374 202.832V202.337C121.374 202.247 121.419 202.202 121.509 202.202H122.05V198.915H121.509C121.374 198.96 121.329 198.915 121.329 198.78Z" fill="#8A939D"/>
    </g>
</svg>
