<svg width="12" height="12" viewBox="0 0 12 12" fill="none" xmlns="http://www.w3.org/2000/svg">
<path d="M4 3V2.6C4 1.715 4 1 5.6 1H6.4C8 1 8 1.715 8 2.6V3" stroke="#292D32" stroke-miterlimit="10" stroke-linecap="round" stroke-linejoin="round"/>
<path d="M7 6.5V7C7 7.005 7 7.005 7 7.01C7 7.555 6.995 8 6 8C5.01 8 5 7.56 5 7.015V6.5C5 6 5 6 5.5 6H6.5C7 6 7 6 7 6.5Z" stroke="#292D32" stroke-miterlimit="10" stroke-linecap="round" stroke-linejoin="round"/>
<path d="M10.825 5.5C9.67 6.34 8.35 6.84 7 7.01" stroke="#292D32" stroke-miterlimit="10" stroke-linecap="round" stroke-linejoin="round"/>
<path d="M1.30957 5.63477C2.43457 6.40477 3.70457 6.86977 4.99957 7.01477" stroke="#292D32" stroke-miterlimit="10" stroke-linecap="round" stroke-linejoin="round"/>
<path d="M3.99991 11H7.99991C10.0099 11 10.3699 10.195 10.4749 9.215L10.8499 5.215C10.9849 3.995 10.6349 3 8.49991 3H3.49991C1.36491 3 1.01491 3.995 1.14991 5.215L1.52491 9.215C1.62991 10.195 1.98991 11 3.99991 11Z" stroke="#A9ABAD" stroke-miterlimit="10" stroke-linecap="round" stroke-linejoin="round"/>
</svg>
