<svg width="12" height="12" viewBox="0 0 12 12" fill="none" xmlns="http://www.w3.org/2000/svg">
<path d="M4.00016 11H8.00016C10.0102 11 10.3702 10.195 10.4752 9.215L10.8502 5.215C10.9852 3.995 10.6352 3 8.50016 3H3.50016C1.36516 3 1.01516 3.995 1.15016 5.215L1.52516 9.215C1.63016 10.195 1.99016 11 4.00016 11Z" fill="#3F4151" stroke="#6E6A7C" stroke-miterlimit="10" stroke-linecap="round" stroke-linejoin="round"/>
<path d="M4.00024 3V2.6C4.00024 1.715 4.00024 1 5.60024 1H6.40024C8.00024 1 8.00024 1.715 8.00024 2.6V3" stroke="#686578" stroke-miterlimit="10" stroke-linecap="round" stroke-linejoin="round"/>
<path d="M7.00024 6.5V7C7.00024 7.005 7.00024 7.005 7.00024 7.01C7.00024 7.555 6.99524 8 6.00024 8C5.01024 8 5.00024 7.56 5.00024 7.015V6.5C5.00024 6 5.00024 6 5.50024 6H6.50024C7.00024 6 7.00024 6 7.00024 6.5Z" stroke="#6E6A7C" stroke-miterlimit="10" stroke-linecap="round" stroke-linejoin="round"/>
<path opacity="0.4" d="M10.8252 5.5C9.67024 6.34 8.35024 6.84 7.00024 7.01" stroke="#6E6A7C" stroke-miterlimit="10" stroke-linecap="round" stroke-linejoin="round"/>
<path opacity="0.4" d="M1.30981 5.63477C2.43481 6.40477 3.70481 6.86977 4.99981 7.01477" stroke="#6E6A7C" stroke-miterlimit="10" stroke-linecap="round" stroke-linejoin="round"/>
</svg>
