<svg width="20" height="20" viewBox="0 0 20 20" fill="none" xmlns="http://www.w3.org/2000/svg">
<path d="M2.94141 11.6499L3.24974 11.6582C3.86641 11.6666 4.35807 12.1666 4.35807 12.7832V13.0582C4.35807 13.6749 4.85807 14.1832 5.48307 14.1832C6.09974 14.1832 6.60807 13.6832 6.60807 13.0582V12.7999C6.60807 12.1832 7.10807 11.6749 7.73307 11.6749C8.34974 11.6749 8.85807 12.1749 8.85807 12.7999V13.0582C8.85807 13.6749 9.35807 14.1832 9.98307 14.1832C10.5997 14.1832 11.1081 13.6832 11.1081 13.0582V12.7999C11.1081 12.1832 11.6081 11.6749 12.2331 11.6749C12.8497 11.6749 13.3581 12.1749 13.3581 12.7999V13.0582C13.3581 13.6749 13.8581 14.1832 14.4831 14.1832C15.0997 14.1832 15.6081 13.6832 15.6081 13.0582V12.7999C15.6081 12.1832 16.1081 11.6749 16.7331 11.6749H17.1081" stroke="#292D32" stroke-width="1.5" stroke-linecap="round" stroke-linejoin="round"/>
<path d="M6.66699 4.16667V2.5" stroke="#292D32" stroke-width="1.5" stroke-linecap="round" stroke-linejoin="round"/>
<path d="M13.333 4.16667V2.5" stroke="#292D32" stroke-width="1.5" stroke-linecap="round" stroke-linejoin="round"/>
<path d="M10 4.1665V1.6665" stroke="#292D32" stroke-width="1.5" stroke-linecap="round" stroke-linejoin="round"/>
<path d="M1.66699 18.3335H18.3337" stroke="#A9ABAD" stroke-width="1.5" stroke-linecap="round" stroke-linejoin="round"/>
<path d="M2.5918 18.3335V10.8335C2.5918 9.45016 3.83346 8.3335 5.3668 8.3335H14.6251C16.1585 8.3335 17.4001 9.45016 17.4001 10.8335V18.3335" stroke="#A9ABAD" stroke-width="1.5" stroke-linecap="round" stroke-linejoin="round"/>
<path d="M4.63281 8.33317V5.97484C4.63281 4.97484 5.53281 4.1665 6.64948 4.1665H13.3578C14.4661 4.1665 15.3661 4.97484 15.3661 5.97484V8.33317" stroke="#A9ABAD" stroke-width="1.5" stroke-linecap="round" stroke-linejoin="round"/>
</svg>
