<svg width="20" height="20" viewBox="0 0 20 20" fill="none" xmlns="http://www.w3.org/2000/svg">
<path d="M6.6665 4.16667V2.5" stroke="#5C6070" stroke-width="1.5" stroke-linecap="round" stroke-linejoin="round"/>
<path d="M13.3335 4.16667V2.5" stroke="#5C6070" stroke-width="1.5" stroke-linecap="round" stroke-linejoin="round"/>
<path d="M10 4.16699V1.66699" stroke="#5C6070" stroke-width="1.5" stroke-linecap="round" stroke-linejoin="round"/>
<path opacity="0.4" d="M2.94141 12.6504L3.24974 12.6587C3.86641 12.6671 4.35807 13.1671 4.35807 13.7837V14.0587C4.35807 14.6754 4.85807 15.1837 5.48307 15.1837C6.09974 15.1837 6.60807 14.6837 6.60807 14.0587V13.8004C6.60807 13.1837 7.10807 12.6754 7.73307 12.6754C8.34974 12.6754 8.85807 13.1754 8.85807 13.8004V14.0587C8.85807 14.6754 9.35807 15.1837 9.98307 15.1837C10.5997 15.1837 11.1081 14.6837 11.1081 14.0587V13.8004C11.1081 13.1837 11.6081 12.6754 12.2331 12.6754C12.8497 12.6754 13.3581 13.1754 13.3581 13.8004V14.0587C13.3581 14.6754 13.8581 15.1837 14.4831 15.1837C15.0997 15.1837 15.6081 14.6837 15.6081 14.0587V13.8004C15.6081 13.1837 16.1081 12.6754 16.7331 12.6754H17.1081" stroke="#AFADB5" stroke-width="1.5" stroke-linecap="round" stroke-linejoin="round"/>
<path d="M2.5918 18.3335V10.8335C2.5918 9.45016 3.83346 8.3335 5.3668 8.3335H14.6251C16.1585 8.3335 17.4001 9.45016 17.4001 10.8335V18.3335" stroke="#6E6A7C" stroke-width="1.5" stroke-linecap="round" stroke-linejoin="round"/>
<path d="M1.6665 18.3335H18.3332" stroke="#6E6A7C" stroke-width="1.5" stroke-linecap="round" stroke-linejoin="round"/>
<path d="M4.6333 8.33366V5.97533C4.6333 4.97533 5.5333 4.16699 6.64997 4.16699H13.3583C14.4666 4.16699 15.3666 4.97533 15.3666 5.97533V8.33366" stroke="#6E6A7C" stroke-width="1.5" stroke-linecap="round" stroke-linejoin="round"/>
</svg>
