<svg width="22" height="20" viewBox="0 0 22 20" fill="none" xmlns="http://www.w3.org/2000/svg">
<path d="M16 18.8477H6C2 18.8477 1 17.8477 1 13.8477V5.84766C1 1.84766 2 0.847656 6 0.847656H16C20 0.847656 21 1.84766 21 5.84766V13.8477C21 17.8477 20 18.8477 16 18.8477Z" stroke="#A9ABAD" stroke-width="1.5" stroke-linecap="round" stroke-linejoin="round"/>
<path d="M13 5.84766H18" stroke="#292D32" stroke-width="1.5" stroke-linecap="round" stroke-linejoin="round"/>
<path d="M14 9.84766H18" stroke="#292D32" stroke-width="1.5" stroke-linecap="round" stroke-linejoin="round"/>
<path d="M16 13.8477H18" stroke="#292D32" stroke-width="1.5" stroke-linecap="round" stroke-linejoin="round"/>
<path d="M11 14.1774C10.86 12.7274 9.71 11.5874 8.26 11.4574C7.76 11.4074 7.25 11.4074 6.74 11.4574C5.29 11.5974 4.14 12.7274 4 14.1774" stroke="#292D32" stroke-width="1.5" stroke-linecap="round" stroke-linejoin="round"/>
<path d="M7.50043 9.13756C8.50007 9.13756 9.3104 8.32726 9.3104 7.32758C9.3104 6.32795 8.50007 5.51758 7.50043 5.51758C6.50079 5.51758 5.69043 6.32795 5.69043 7.32758C5.69043 8.32726 6.50079 9.13756 7.50043 9.13756Z" fill="#292D32" stroke="#292D32" stroke-width="1.5" stroke-linecap="round" stroke-linejoin="round"/>
<rect x="4" y="11.8477" width="7" height="3" rx="1.5" fill="#292D32"/>
</svg>
