<svg width="20" height="20" viewBox="0 0 20 20" fill="none" xmlns="http://www.w3.org/2000/svg">
<rect width="20" height="20" rx="4" fill="#09101F"/>
<path d="M12.6666 3.3335H7.33325C4.66659 3.3335 3.33325 4.66683 3.33325 7.3335V16.0002C3.33325 16.3668 3.63325 16.6668 3.99992 16.6668H12.6666C15.3333 16.6668 16.6666 15.3335 16.6666 12.6668V7.3335C16.6666 4.66683 15.3333 3.3335 12.6666 3.3335Z" stroke="#6E6A7C" stroke-linecap="round" stroke-linejoin="round"/>
<path opacity="0.4" d="M10.6066 7.22677L7.14661 10.6868C7.01328 10.8201 6.88661 11.0801 6.85995 11.2668L6.67328 12.5868C6.60661 13.0668 6.93994 13.4001 7.41994 13.3334L8.73993 13.1468C8.9266 13.1201 9.18662 12.9934 9.31995 12.8601L12.78 9.4001C13.3733 8.80677 13.66 8.11343 12.78 7.23343C11.9 6.34677 11.2066 6.62677 10.6066 7.22677Z" stroke="#AFAEB5" stroke-miterlimit="10" stroke-linecap="round" stroke-linejoin="round"/>
<path opacity="0.4" d="M10.1133 7.72021C10.4066 8.76688 11.2266 9.59355 12.2799 9.88688" stroke="#AFAEB5" stroke-miterlimit="10" stroke-linecap="round" stroke-linejoin="round"/>
</svg>
