<svg width="20" height="20" viewBox="0 0 20 20" fill="none" xmlns="http://www.w3.org/2000/svg">
<rect width="20" height="20" rx="4" fill="#F0F0FE"/>
<path d="M12.6663 3.3335H7.33301C4.66634 3.3335 3.33301 4.66683 3.33301 7.3335V16.0002C3.33301 16.3668 3.63301 16.6668 3.99967 16.6668H12.6663C15.333 16.6668 16.6663 15.3335 16.6663 12.6668V7.3335C16.6663 4.66683 15.333 3.3335 12.6663 3.3335Z" stroke="#292D32" stroke-linecap="round" stroke-linejoin="round"/>
<path d="M10.6069 7.22677L7.14685 10.6868C7.01352 10.8201 6.88686 11.0801 6.86019 11.2668L6.67353 12.5868C6.60686 13.0668 6.94019 13.4001 7.42019 13.3334L8.74018 13.1468C8.92684 13.1201 9.18686 12.9934 9.32019 12.8601L12.7802 9.4001C13.3735 8.80677 13.6602 8.11343 12.7802 7.23343C11.9002 6.34677 11.2069 6.62677 10.6069 7.22677Z" stroke="#6E6A7C" stroke-miterlimit="10" stroke-linecap="round" stroke-linejoin="round"/>
<path d="M10.1133 7.72021C10.4066 8.76688 11.2266 9.59355 12.2799 9.88688" stroke="#6E6A7C" stroke-miterlimit="10" stroke-linecap="round" stroke-linejoin="round"/>
</svg>
