<svg width="18" height="18" viewBox="0 0 18 18" fill="none" xmlns="http://www.w3.org/2000/svg">
<path opacity="0.4" d="M15.9377 6.86277C15.5702 6.27777 15.1502 5.75277 14.7152 5.28027L11.8877 8.10777C11.9777 8.38527 12.0302 8.68527 12.0302 9.00027C12.0302 10.6803 10.6727 12.0303 9.0002 12.0303C8.6852 12.0303 8.3852 11.9778 8.1077 11.8878L5.5127 14.4828C6.6077 15.0978 7.7927 15.4203 9.0002 15.4203C10.3352 15.4203 11.6327 15.0303 12.8177 14.3028C14.0027 13.5678 15.0677 12.4953 15.9377 11.1303C16.6877 9.96027 16.6877 8.04027 15.9377 6.86277Z" fill="#292D32"/>
<path d="M10.5155 7.48547L7.48547 10.5155C7.10297 10.1255 6.85547 9.58547 6.85547 9.00047C6.85547 7.82297 7.81547 6.85547 9.00047 6.85547C9.58547 6.85547 10.1255 7.10297 10.5155 7.48547Z" fill="#292D32"/>
<path opacity="0.4" d="M13.6875 4.31227L11.145 6.85477C10.5975 6.29977 9.84 5.96977 9 5.96977C7.32 5.96977 5.97 7.32727 5.97 8.99977C5.97 9.83977 6.3075 10.5973 6.855 11.1448L4.32 13.6873H4.3125C3.48 13.0123 2.715 12.1498 2.0625 11.1298C1.3125 9.95227 1.3125 8.03977 2.0625 6.86227C2.9325 5.49727 3.9975 4.42477 5.1825 3.68977C6.3675 2.96977 7.665 2.57227 9 2.57227C10.6725 2.57227 12.2925 3.18727 13.6875 4.31227Z" fill="#292D32"/>
<path d="M11.1446 8.99957C11.1446 10.1771 10.1846 11.1446 8.99957 11.1446C8.95457 11.1446 8.91707 11.1446 8.87207 11.1296L11.1296 8.87207C11.1446 8.91707 11.1446 8.95457 11.1446 8.99957Z" fill="#292D32"/>
<path d="M16.3277 1.67266C16.1027 1.44766 15.7352 1.44766 15.5102 1.67266L1.67266 15.5177C1.44766 15.7427 1.44766 16.1102 1.67266 16.3352C1.78516 16.4402 1.92766 16.5002 2.07766 16.5002C2.22766 16.5002 2.37016 16.4402 2.48266 16.3277L16.3277 2.48266C16.5602 2.25766 16.5602 1.89766 16.3277 1.67266Z" fill="#292D32"/>
</svg>
