<svg width="18" height="18" viewBox="0 0 18 18" fill="none" xmlns="http://www.w3.org/2000/svg">
<path opacity="0.4" d="M15.9375 6.86277C15.57 6.27777 15.15 5.75277 14.715 5.28027L11.8875 8.10777C11.9775 8.38527 12.03 8.68527 12.03 9.00027C12.03 10.6803 10.6725 12.0303 8.99995 12.0303C8.68495 12.0303 8.38495 11.9778 8.10745 11.8878L5.51245 14.4828C6.60745 15.0978 7.79245 15.4203 8.99995 15.4203C10.335 15.4203 11.6325 15.0303 12.8175 14.3028C14.0025 13.5678 15.0675 12.4953 15.9375 11.1303C16.6875 9.96027 16.6875 8.04027 15.9375 6.86277Z" fill="#6E6A7C"/>
<path d="M10.515 7.48547L7.48498 10.5155C7.10248 10.1255 6.85498 9.58547 6.85498 9.00047C6.85498 7.82297 7.81498 6.85547 8.99998 6.85547C9.58498 6.85547 10.125 7.10297 10.515 7.48547Z" fill="#6E6A7C"/>
<path opacity="0.4" d="M13.6875 4.31227L11.145 6.85477C10.5975 6.29977 9.84 5.96977 9 5.96977C7.32 5.96977 5.97 7.32727 5.97 8.99977C5.97 9.83977 6.3075 10.5973 6.855 11.1448L4.32 13.6873H4.3125C3.48 13.0123 2.715 12.1498 2.0625 11.1298C1.3125 9.95227 1.3125 8.03977 2.0625 6.86227C2.9325 5.49727 3.9975 4.42477 5.1825 3.68977C6.3675 2.96977 7.665 2.57227 9 2.57227C10.6725 2.57227 12.2925 3.18727 13.6875 4.31227Z" fill="#6E6A7C"/>
<path d="M11.1451 8.99957C11.1451 10.1771 10.1851 11.1446 9.00006 11.1446C8.95506 11.1446 8.91756 11.1446 8.87256 11.1296L11.1301 8.87207C11.1451 8.91707 11.1451 8.95457 11.1451 8.99957Z" fill="#6E6A7C"/>
<path d="M16.3274 1.67266C16.1024 1.44766 15.7349 1.44766 15.5099 1.67266L1.67241 15.5177C1.44741 15.7427 1.44741 16.1102 1.67241 16.3352C1.78491 16.4402 1.92741 16.5002 2.07741 16.5002C2.22741 16.5002 2.36991 16.4402 2.48241 16.3277L16.3274 2.48266C16.5599 2.25766 16.5599 1.89766 16.3274 1.67266Z" fill="#6E6A7C"/>
</svg>
