<svg width="22" height="18" viewBox="0 0 22 18" fill="none" xmlns="http://www.w3.org/2000/svg">
<path opacity="0.4" d="M20.2277 6.01051C17.8004 2.19615 14.2487 0 10.5079 0C8.63748 0 6.81961 0.54641 5.15937 1.56567C3.49912 2.59545 2.00701 4.09807 0.788091 6.01051C-0.262697 7.66024 -0.262697 10.3398 0.788091 11.9895C3.21541 15.8144 6.76708 18 10.5079 18C12.3783 18 14.1961 17.4536 15.8564 16.4343C17.5166 15.4046 19.0088 13.9019 20.2277 11.9895C21.2785 10.3503 21.2785 7.66024 20.2277 6.01051ZM10.5079 13.2504C8.15412 13.2504 6.2627 11.3485 6.2627 9.00525C6.2627 6.662 8.15412 4.76007 10.5079 4.76007C12.8616 4.76007 14.7531 6.662 14.7531 9.00525C14.7531 11.3485 12.8616 13.2504 10.5079 13.2504Z" fill="#C5C3CB"/>
<path d="M10.5084 6C8.85868 6 7.51367 7.34501 7.51367 9.00525C7.51367 10.655 8.85868 12 10.5084 12C12.1582 12 13.5137 10.655 13.5137 9.00525C13.5137 7.35552 12.1582 6 10.5084 6Z" fill="#898695"/>
</svg>
