<svg width="144" height="144" viewBox="0 0 144 144" fill="none" xmlns="http://www.w3.org/2000/svg">
<circle opacity="0.5" cx="72" cy="72" r="72" fill="url(#paint0_linear_1103_23447)"/>
<path d="M85.6412 54.7391V39.837C85.6412 35.8847 84.0712 32.0942 81.2765 29.2995C78.4818 26.5048 74.6914 24.9348 70.7391 24.9348C66.7868 24.9348 62.9963 26.5048 60.2016 29.2995C57.4069 32.0942 55.8369 35.8847 55.8369 39.837V54.7391C55.8369 56.0566 55.3135 57.32 54.382 58.2516C53.4504 59.1832 52.1869 59.7065 50.8695 59.7065C49.5521 59.7065 48.2886 59.1832 47.357 58.2516C46.4254 57.32 45.9021 56.0566 45.9021 54.7391V39.837C45.9021 33.2498 48.5188 26.9324 53.1767 22.2746C57.8345 17.6167 64.1519 15 70.7391 15C77.3262 15 83.6436 17.6167 88.3014 22.2746C92.9593 26.9324 95.576 33.2498 95.576 39.837V54.7391C95.576 56.0566 95.0527 57.32 94.1211 58.2516C93.1895 59.1832 91.9261 59.7065 90.6086 59.7065C89.2912 59.7065 88.0277 59.1832 87.0961 58.2516C86.1646 57.32 85.6412 56.0566 85.6412 54.7391Z" fill="#374F68"/>
<path d="M50.8695 24.9348C54.5595 22.1673 58.9473 20.482 63.5412 20.0677C68.1351 19.6535 72.7535 20.5267 76.8791 22.5895C81.0047 24.6523 84.4743 27.8231 86.8993 31.7468C89.3242 35.6704 90.6086 40.1918 90.6086 44.8043V59.7065C91.9261 59.7065 93.1895 59.1832 94.1211 58.2516C95.0527 57.32 95.576 56.0566 95.576 54.7391V39.837C95.576 34.6241 93.9359 29.5434 90.8878 25.3145C87.8398 21.0857 83.5385 17.923 78.5932 16.2746C73.6479 14.6261 68.3092 14.5754 63.3335 16.1297C58.3578 17.684 53.9972 20.7645 50.8695 24.9348Z" fill="#425B72"/>
<path d="M50.8693 59.7065C60.8041 59.7065 52.0118 42.0226 58.072 32.1375C49.0811 37.6016 50.8693 45.8475 50.8693 59.7065Z" fill="#2C435E"/>
<path d="M100.543 54.7391H40.9348C35.448 54.7391 31 59.1871 31 64.6739V104.413C31 109.9 35.448 114.348 40.9348 114.348H100.543C106.03 114.348 110.478 109.9 110.478 104.413V64.6739C110.478 59.1871 106.03 54.7391 100.543 54.7391Z" fill="#979A9D"/>
<path d="M110.478 64.6739V104.413H50.8695C48.2346 104.413 45.7076 103.366 43.8445 101.503C41.9814 99.6401 40.9347 97.1131 40.9347 94.4783V54.7391H100.543C103.178 54.7391 105.705 55.7858 107.568 57.649C109.431 59.5121 110.478 62.039 110.478 64.6739Z" fill="#A9ABAD"/>
<path d="M70.7389 69.6413C68.5708 69.6634 66.4694 70.3943 64.7554 71.7223C63.0415 73.0503 61.809 74.9026 61.2461 76.9965C60.6832 79.0904 60.8208 81.311 61.6379 83.3194C62.455 85.3278 63.9067 87.0137 65.7715 88.12V94.4783C65.7715 95.7957 66.2949 97.0592 67.2264 97.9907C68.158 98.9223 69.4215 99.4456 70.7389 99.4456C72.0563 99.4456 73.3198 98.9223 74.2514 97.9907C75.183 97.0592 75.7063 95.7957 75.7063 94.4783V88.12C77.5711 87.0137 79.0228 85.3278 79.8399 83.3194C80.657 81.311 80.7946 79.0904 80.2317 76.9965C79.6688 74.9026 78.4364 73.0503 76.7224 71.7223C75.0084 70.3943 72.907 69.6634 70.7389 69.6413V69.6413Z" fill="#DAD7E5"/>
<path d="M68.2554 69.989C70.1401 70.4984 71.833 71.5519 73.1226 73.0178C74.4122 74.4837 75.2412 76.297 75.5062 78.2314C75.7712 80.1657 75.4603 82.1352 74.6125 83.8939C73.7646 85.6526 72.4174 87.1225 70.7391 88.12C70.7391 94.677 71.2855 96.8626 68.2554 98.7005C69.0047 99.1333 69.854 99.3628 70.7193 99.3664C71.5846 99.3699 72.4359 99.1474 73.1887 98.7208C73.9415 98.2942 74.5698 97.6783 75.0115 96.9342C75.4531 96.19 75.6927 95.3435 75.7065 94.4783V88.12C77.7077 86.8817 79.2043 84.9732 79.9298 82.7345C80.6553 80.4957 80.5625 78.0722 79.668 75.8955C78.7734 73.7188 77.1352 71.9303 75.0452 70.8486C72.9552 69.7669 70.549 69.4623 68.2554 69.989Z" fill="#C6C3D8"/>
<path d="M60.75 122.515H59.0275L60.4358 121.01C60.6398 120.79 60.7544 120.492 60.7544 120.181C60.7544 119.87 60.6398 119.573 60.4358 119.353C60.2318 119.133 59.9552 119.01 59.6667 119.01C59.3782 119.01 59.1015 119.133 58.8975 119.353L57.5 120.87V119.015C57.5 118.705 57.3859 118.408 57.1827 118.19C56.9795 117.971 56.704 117.848 56.4167 117.848C56.1293 117.848 55.8538 117.971 55.6506 118.19C55.4475 118.408 55.3333 118.705 55.3333 119.015V120.87L53.9358 119.353C53.7318 119.133 53.4552 119.01 53.1667 119.01C52.8782 119.01 52.6015 119.133 52.3975 119.353C52.1935 119.573 52.0789 119.87 52.0789 120.181C52.0789 120.492 52.1935 120.79 52.3975 121.01L53.8058 122.515H52.0833C51.796 122.515 51.5205 122.637 51.3173 122.856C51.1141 123.075 51 123.372 51 123.681C51 123.991 51.1141 124.287 51.3173 124.506C51.5205 124.725 51.796 124.848 52.0833 124.848H53.8058L52.3975 126.353C52.2447 126.516 52.1405 126.725 52.0982 126.952C52.0559 127.179 52.0773 127.415 52.1598 127.629C52.2424 127.843 52.3822 128.025 52.5615 128.153C52.7408 128.281 52.9515 128.349 53.1667 128.348C53.7625 128.348 53.9142 128.033 55.3333 126.493V128.348C55.3333 128.657 55.4475 128.954 55.6506 129.173C55.8538 129.392 56.1293 129.515 56.4167 129.515C56.704 129.515 56.9795 129.392 57.1827 129.173C57.3859 128.954 57.5 128.657 57.5 128.348V126.493C58.8325 127.928 59.06 128.348 59.6667 128.348C59.8818 128.349 60.0925 128.281 60.2718 128.153C60.4511 128.025 60.591 127.843 60.6735 127.629C60.756 127.415 60.7775 127.179 60.7351 126.952C60.6928 126.725 60.5886 126.516 60.4358 126.353L59.0275 124.848H60.75C61.0373 124.848 61.3129 124.725 61.516 124.506C61.7192 124.287 61.8333 123.991 61.8333 123.681C61.8333 123.372 61.7192 123.075 61.516 122.856C61.3129 122.637 61.0373 122.515 60.75 122.515Z" fill="#425B72"/>
<path d="M75.6666 122.515H73.8116L75.3283 121.01C75.4371 120.901 75.5234 120.772 75.5822 120.629C75.6411 120.487 75.6714 120.335 75.6714 120.181C75.6714 120.027 75.6411 119.875 75.5822 119.733C75.5234 119.591 75.4371 119.462 75.3283 119.353C75.2195 119.244 75.0904 119.158 74.9483 119.099C74.8061 119.04 74.6538 119.01 74.5 119.01C74.3461 119.01 74.1938 119.04 74.0517 119.099C73.9095 119.158 73.7804 119.244 73.6716 119.353L72.1666 120.87V119.015C72.1666 118.705 72.0437 118.408 71.8249 118.19C71.6061 117.971 71.3094 117.848 71 117.848C70.6905 117.848 70.3938 117.971 70.175 118.19C69.9562 118.408 69.8333 118.705 69.8333 119.015V120.87L68.3283 119.353C68.2195 119.244 68.0904 119.158 67.9482 119.099C67.8061 119.04 67.6538 119.01 67.5 119.01C67.3461 119.01 67.1938 119.04 67.0517 119.099C66.9095 119.158 66.7804 119.244 66.6716 119.353C66.5628 119.462 66.4766 119.591 66.4177 119.733C66.3588 119.875 66.3285 120.027 66.3285 120.181C66.3285 120.335 66.3588 120.487 66.4177 120.629C66.4766 120.772 66.5628 120.901 66.6716 121.01L68.1883 122.515H66.3333C66.0239 122.515 65.7271 122.637 65.5083 122.856C65.2895 123.075 65.1666 123.372 65.1666 123.681C65.1666 123.991 65.2895 124.287 65.5083 124.506C65.7271 124.725 66.0239 124.848 66.3333 124.848H68.1883L66.6716 126.353C66.5071 126.516 66.3949 126.725 66.3493 126.952C66.3037 127.179 66.3268 127.415 66.4157 127.629C66.5046 127.843 66.6551 128.025 66.8482 128.153C67.0414 128.281 67.2682 128.349 67.5 128.348C68.1416 128.348 68.305 128.033 69.8333 126.493V128.348C69.8333 128.657 69.9562 128.954 70.175 129.173C70.3938 129.392 70.6905 129.515 71 129.515C71.3094 129.515 71.6061 129.392 71.8249 129.173C72.0437 128.954 72.1666 128.657 72.1666 128.348V126.493C73.6016 127.928 73.8466 128.348 74.5 128.348C74.7317 128.349 74.9586 128.281 75.1517 128.153C75.3448 128.025 75.4954 127.843 75.5842 127.629C75.6731 127.415 75.6962 127.179 75.6506 126.952C75.605 126.725 75.4928 126.516 75.3283 126.353L73.8116 124.848H75.6666C75.976 124.848 76.2728 124.725 76.4916 124.506C76.7104 124.287 76.8333 123.991 76.8333 123.681C76.8333 123.372 76.7104 123.075 76.4916 122.856C76.2728 122.637 75.976 122.515 75.6666 122.515Z" fill="#425B72"/>
<path d="M89.9166 122.515H88.1941L89.6025 121.01C89.7035 120.901 89.7836 120.772 89.8383 120.629C89.8929 120.487 89.9211 120.335 89.9211 120.181C89.9211 120.027 89.8929 119.875 89.8383 119.733C89.7836 119.591 89.7035 119.462 89.6025 119.353C89.5014 119.244 89.3815 119.158 89.2496 119.099C89.1176 119.04 88.9761 119.01 88.8333 119.01C88.6904 119.01 88.549 119.04 88.417 119.099C88.285 119.158 88.1651 119.244 88.0641 119.353L86.6666 120.87V119.015C86.6666 118.705 86.5525 118.408 86.3493 118.19C86.1462 117.971 85.8706 117.848 85.5833 117.848C85.296 117.848 85.0204 117.971 84.8173 118.19C84.6141 118.408 84.5 118.705 84.5 119.015V120.87L83.1025 119.353C83.0014 119.244 82.8815 119.158 82.7496 119.099C82.6176 119.04 82.4761 119.01 82.3333 119.01C82.1904 119.01 82.049 119.04 81.917 119.099C81.785 119.158 81.6651 119.244 81.5641 119.353C81.4631 119.462 81.383 119.591 81.3283 119.733C81.2737 119.875 81.2455 120.027 81.2455 120.181C81.2455 120.335 81.2737 120.487 81.3283 120.629C81.383 120.772 81.4631 120.901 81.5641 121.01L82.9725 122.515H81.25C80.9626 122.515 80.6871 122.637 80.4839 122.856C80.2808 123.075 80.1666 123.372 80.1666 123.681C80.1666 123.991 80.2808 124.287 80.4839 124.506C80.6871 124.725 80.9626 124.848 81.25 124.848H82.9725L81.5641 126.353C81.4113 126.516 81.3071 126.725 81.2648 126.952C81.2225 127.179 81.244 127.415 81.3265 127.629C81.409 127.843 81.5488 128.025 81.7281 128.153C81.9074 128.281 82.1181 128.349 82.3333 128.348C82.9291 128.348 83.0808 128.033 84.5 126.493V128.348C84.5 128.657 84.6141 128.954 84.8173 129.173C85.0204 129.392 85.296 129.515 85.5833 129.515C85.8706 129.515 86.1462 129.392 86.3493 129.173C86.5525 128.954 86.6666 128.657 86.6666 128.348V126.493C87.9991 127.928 88.2266 128.348 88.8333 128.348C89.0485 128.349 89.2591 128.281 89.4385 128.153C89.6178 128.025 89.7576 127.843 89.8401 127.629C89.9226 127.415 89.9441 127.179 89.9018 126.952C89.8594 126.725 89.7552 126.516 89.6025 126.353L88.1941 124.848H89.9166C90.2039 124.848 90.4795 124.725 90.6827 124.506C90.8858 124.287 91 123.991 91 123.681C91 123.372 90.8858 123.075 90.6827 122.856C90.4795 122.637 90.2039 122.515 89.9166 122.515Z" fill="#425B72"/>
<circle cx="107.348" cy="103.348" r="13.3478" fill="#F1F4F8" stroke="#979A9D" stroke-width="2"/>
<path d="M107.932 95C109.443 95 110.65 95.4147 111.553 96.2441C112.471 97.0735 112.931 98.2065 112.931 99.6431C112.931 101.139 112.457 102.265 111.509 103.02C110.561 103.775 109.302 104.153 107.732 104.153L107.643 105.908H105.444L105.333 102.42H106.066C107.502 102.42 108.598 102.228 109.354 101.843C110.124 101.457 110.509 100.724 110.509 99.6431C110.509 98.8582 110.279 98.2435 109.82 97.7992C109.376 97.3549 108.754 97.1327 107.954 97.1327C107.154 97.1327 106.525 97.3475 106.066 97.777C105.607 98.2065 105.377 98.8063 105.377 99.5765H103C103 98.6879 103.2 97.8955 103.6 97.1994C104 96.5033 104.57 95.9627 105.31 95.5776C106.066 95.1925 106.94 95 107.932 95ZM106.51 110.818C106.051 110.818 105.666 110.662 105.355 110.351C105.044 110.04 104.888 109.655 104.888 109.196C104.888 108.737 105.044 108.352 105.355 108.041C105.666 107.73 106.051 107.574 106.51 107.574C106.954 107.574 107.332 107.73 107.643 108.041C107.954 108.352 108.11 108.737 108.11 109.196C108.11 109.655 107.954 110.04 107.643 110.351C107.332 110.662 106.954 110.818 106.51 110.818Z" fill="#BC1006"/>
<defs>
<linearGradient id="paint0_linear_1103_23447" x1="78" y1="188" x2="80" y2="-41.5" gradientUnits="userSpaceOnUse">
<stop stop-color="#EBF2FF"/>
<stop offset="1" stop-color="#D3CDFF" stop-opacity="0.35"/>
</linearGradient>
</defs>
</svg>
