<svg width="144" height="144" viewBox="0 0 144 144" fill="none" xmlns="http://www.w3.org/2000/svg">
<circle opacity="0.5" cx="72" cy="72" r="72" fill="#384156"/>
<path d="M85.641 54.7391V39.837C85.641 35.8847 84.0709 32.0942 81.2762 29.2995C78.4815 26.5048 74.6911 24.9348 70.7388 24.9348C66.7865 24.9348 62.9961 26.5048 60.2014 29.2995C57.4067 32.0942 55.8366 35.8847 55.8366 39.837V54.7391C55.8366 56.0566 55.3133 57.32 54.3817 58.2516C53.4502 59.1832 52.1867 59.7065 50.8692 59.7065C49.5518 59.7065 48.2883 59.1832 47.3568 58.2516C46.4252 57.32 45.9019 56.0566 45.9019 54.7391V39.837C45.9019 33.2498 48.5186 26.9324 53.1764 22.2746C57.8343 17.6167 64.1516 15 70.7388 15C77.326 15 83.6434 17.6167 88.3012 22.2746C92.959 26.9324 95.5758 33.2498 95.5758 39.837V54.7391C95.5758 56.0566 95.0524 57.32 94.1209 58.2516C93.1893 59.1832 91.9258 59.7065 90.6084 59.7065C89.2909 59.7065 88.0275 59.1832 87.0959 58.2516C86.1643 57.32 85.641 56.0566 85.641 54.7391Z" fill="#374F68"/>
<path d="M50.8696 24.9348C54.5596 22.1673 58.9474 20.482 63.5413 20.0677C68.1352 19.6535 72.7537 20.5267 76.8792 22.5895C81.0048 24.6523 84.4744 27.8231 86.8994 31.7468C89.3243 35.6704 90.6088 40.1918 90.6088 44.8043V59.7065C91.9262 59.7065 93.1897 59.1832 94.1212 58.2516C95.0528 57.32 95.5761 56.0566 95.5761 54.7391V39.837C95.5761 34.6241 93.936 29.5434 90.888 25.3145C87.84 21.0857 83.5387 17.923 78.5933 16.2746C73.648 14.6261 68.3094 14.5754 63.3336 16.1297C58.3579 17.684 53.9973 20.7645 50.8696 24.9348Z" fill="#425B72"/>
<path d="M50.8694 59.7065C60.8042 59.7065 52.0119 42.0226 58.0722 32.1375C49.0812 37.6016 50.8694 45.8475 50.8694 59.7065Z" fill="#2C435E"/>
<path d="M100.543 54.7391H40.9348C35.448 54.7391 31 59.1871 31 64.6739V104.413C31 109.9 35.448 114.348 40.9348 114.348H100.543C106.03 114.348 110.478 109.9 110.478 104.413V64.6739C110.478 59.1871 106.03 54.7391 100.543 54.7391Z" fill="#979A9D"/>
<path d="M110.478 64.6739V104.413H50.8694C48.2345 104.413 45.7075 103.366 43.8444 101.503C41.9813 99.6401 40.9346 97.1131 40.9346 94.4783V54.7391H100.543C103.178 54.7391 105.705 55.7858 107.568 57.649C109.431 59.5121 110.478 62.039 110.478 64.6739Z" fill="#A9ABAD"/>
<path d="M70.7387 69.6413C68.5705 69.6634 66.4691 70.3943 64.7552 71.7223C63.0412 73.0503 61.8088 74.9026 61.2459 76.9965C60.683 79.0904 60.8206 81.311 61.6377 83.3194C62.4548 85.3278 63.9065 87.0137 65.7713 88.12V94.4783C65.7713 95.7957 66.2946 97.0592 67.2262 97.9907C68.1577 98.9223 69.4212 99.4456 70.7387 99.4456C72.0561 99.4456 73.3196 98.9223 74.2511 97.9907C75.1827 97.0592 75.7061 95.7957 75.7061 94.4783V88.12C77.5709 87.0137 79.0226 85.3278 79.8396 83.3194C80.6567 81.311 80.7943 79.0904 80.2314 76.9965C79.6686 74.9026 78.4361 73.0503 76.7221 71.7223C75.0082 70.3943 72.9068 69.6634 70.7387 69.6413Z" fill="#DAD7E5"/>
<path d="M68.2554 69.989C70.1401 70.4984 71.833 71.5519 73.1226 73.0178C74.4122 74.4837 75.2412 76.297 75.5062 78.2314C75.7712 80.1657 75.4603 82.1352 74.6125 83.8939C73.7646 85.6526 72.4174 87.1225 70.7391 88.12C70.7391 94.677 71.2855 96.8626 68.2554 98.7005C69.0047 99.1333 69.854 99.3628 70.7193 99.3664C71.5846 99.3699 72.4359 99.1474 73.1887 98.7208C73.9415 98.2942 74.5698 97.6783 75.0115 96.9342C75.4531 96.19 75.6927 95.3435 75.7065 94.4783V88.12C77.7077 86.8817 79.2043 84.9732 79.9298 82.7345C80.6553 80.4957 80.5625 78.0722 79.668 75.8955C78.7734 73.7188 77.1352 71.9303 75.0452 70.8486C72.9552 69.7669 70.549 69.4623 68.2554 69.989Z" fill="#C6C3D8"/>
<path d="M60.75 122.515H59.0275L60.4358 121.01C60.6398 120.79 60.7544 120.492 60.7544 120.181C60.7544 119.87 60.6398 119.573 60.4358 119.353C60.2318 119.133 59.9552 119.01 59.6667 119.01C59.3782 119.01 59.1015 119.133 58.8975 119.353L57.5 120.87V119.015C57.5 118.705 57.3859 118.408 57.1827 118.19C56.9795 117.971 56.704 117.848 56.4167 117.848C56.1293 117.848 55.8538 117.971 55.6506 118.19C55.4475 118.408 55.3333 118.705 55.3333 119.015V120.87L53.9358 119.353C53.7318 119.133 53.4552 119.01 53.1667 119.01C52.8782 119.01 52.6015 119.133 52.3975 119.353C52.1935 119.573 52.0789 119.87 52.0789 120.181C52.0789 120.492 52.1935 120.79 52.3975 121.01L53.8058 122.515H52.0833C51.796 122.515 51.5205 122.637 51.3173 122.856C51.1141 123.075 51 123.372 51 123.681C51 123.991 51.1141 124.287 51.3173 124.506C51.5205 124.725 51.796 124.848 52.0833 124.848H53.8058L52.3975 126.353C52.2447 126.516 52.1405 126.725 52.0982 126.952C52.0559 127.179 52.0773 127.415 52.1598 127.629C52.2424 127.843 52.3822 128.025 52.5615 128.153C52.7408 128.281 52.9515 128.349 53.1667 128.348C53.7625 128.348 53.9142 128.033 55.3333 126.493V128.348C55.3333 128.657 55.4475 128.954 55.6506 129.173C55.8538 129.392 56.1293 129.515 56.4167 129.515C56.704 129.515 56.9795 129.392 57.1827 129.173C57.3859 128.954 57.5 128.657 57.5 128.348V126.493C58.8325 127.928 59.06 128.348 59.6667 128.348C59.8818 128.349 60.0925 128.281 60.2718 128.153C60.4511 128.025 60.591 127.843 60.6735 127.629C60.756 127.415 60.7775 127.179 60.7351 126.952C60.6928 126.725 60.5886 126.516 60.4358 126.353L59.0275 124.848H60.75C61.0373 124.848 61.3129 124.725 61.516 124.506C61.7192 124.287 61.8333 123.991 61.8333 123.681C61.8333 123.372 61.7192 123.075 61.516 122.856C61.3129 122.637 61.0373 122.515 60.75 122.515Z" fill="#425B72"/>
<path d="M75.6665 122.515H73.8115L75.3282 121.01C75.4369 120.901 75.5232 120.772 75.5821 120.629C75.641 120.487 75.6713 120.335 75.6713 120.181C75.6713 120.027 75.641 119.875 75.5821 119.733C75.5232 119.591 75.4369 119.462 75.3282 119.353C75.2194 119.244 75.0903 119.158 74.9481 119.099C74.806 119.04 74.6537 119.01 74.4998 119.01C74.346 119.01 74.1937 119.04 74.0515 119.099C73.9094 119.158 73.7803 119.244 73.6715 119.353L72.1665 120.87V119.015C72.1665 118.705 72.0436 118.408 71.8248 118.19C71.606 117.971 71.3093 117.848 70.9998 117.848C70.6904 117.848 70.3937 117.971 70.1749 118.19C69.9561 118.408 69.8332 118.705 69.8332 119.015V120.87L68.3282 119.353C68.2194 119.244 68.0903 119.158 67.9481 119.099C67.806 119.04 67.6537 119.01 67.4998 119.01C67.346 119.01 67.1937 119.04 67.0515 119.099C66.9094 119.158 66.7803 119.244 66.6715 119.353C66.5627 119.462 66.4764 119.591 66.4176 119.733C66.3587 119.875 66.3284 120.027 66.3284 120.181C66.3284 120.335 66.3587 120.487 66.4176 120.629C66.4764 120.772 66.5627 120.901 66.6715 121.01L68.1882 122.515H66.3332C66.0238 122.515 65.727 122.637 65.5082 122.856C65.2894 123.075 65.1665 123.372 65.1665 123.681C65.1665 123.991 65.2894 124.287 65.5082 124.506C65.727 124.725 66.0238 124.848 66.3332 124.848H68.1882L66.6715 126.353C66.507 126.516 66.3948 126.725 66.3492 126.952C66.3036 127.179 66.3267 127.415 66.4156 127.629C66.5044 127.843 66.655 128.025 66.8481 128.153C67.0412 128.281 67.2681 128.349 67.4998 128.348C68.1415 128.348 68.3048 128.033 69.8332 126.493V128.348C69.8332 128.657 69.9561 128.954 70.1749 129.173C70.3937 129.392 70.6904 129.515 70.9998 129.515C71.3093 129.515 71.606 129.392 71.8248 129.173C72.0436 128.954 72.1665 128.657 72.1665 128.348V126.493C73.6015 127.928 73.8465 128.348 74.4998 128.348C74.7316 128.349 74.9584 128.281 75.1516 128.153C75.3447 128.025 75.4952 127.843 75.5841 127.629C75.673 127.415 75.6961 127.179 75.6505 126.952C75.6049 126.725 75.4927 126.516 75.3282 126.353L73.8115 124.848H75.6665C75.9759 124.848 76.2727 124.725 76.4915 124.506C76.7103 124.287 76.8332 123.991 76.8332 123.681C76.8332 123.372 76.7103 123.075 76.4915 122.856C76.2727 122.637 75.9759 122.515 75.6665 122.515Z" fill="#425B72"/>
<path d="M89.9165 122.515H88.194L89.6023 121.01C89.7033 120.901 89.7835 120.772 89.8381 120.629C89.8928 120.487 89.9209 120.335 89.9209 120.181C89.9209 120.027 89.8928 119.875 89.8381 119.733C89.7835 119.591 89.7033 119.462 89.6023 119.353C89.5013 119.244 89.3814 119.158 89.2494 119.099C89.1175 119.04 88.976 119.01 88.8332 119.01C88.6903 119.01 88.5489 119.04 88.4169 119.099C88.2849 119.158 88.165 119.244 88.064 119.353L86.6665 120.87V119.015C86.6665 118.705 86.5524 118.408 86.3492 118.19C86.146 117.971 85.8705 117.848 85.5832 117.848C85.2959 117.848 85.0203 117.971 84.8171 118.19C84.614 118.408 84.4998 118.705 84.4998 119.015V120.87L83.1023 119.353C83.0013 119.244 82.8814 119.158 82.7494 119.099C82.6175 119.04 82.476 119.01 82.3332 119.01C82.1903 119.01 82.0489 119.04 81.9169 119.099C81.7849 119.158 81.665 119.244 81.564 119.353C81.463 119.462 81.3829 119.591 81.3282 119.733C81.2735 119.875 81.2454 120.027 81.2454 120.181C81.2454 120.335 81.2735 120.487 81.3282 120.629C81.3829 120.772 81.463 120.901 81.564 121.01L82.9723 122.515H81.2498C80.9625 122.515 80.687 122.637 80.4838 122.856C80.2806 123.075 80.1665 123.372 80.1665 123.681C80.1665 123.991 80.2806 124.287 80.4838 124.506C80.687 124.725 80.9625 124.848 81.2498 124.848H82.9723L81.564 126.353C81.4112 126.516 81.307 126.725 81.2647 126.952C81.2224 127.179 81.2438 127.415 81.3264 127.629C81.4089 127.843 81.5487 128.025 81.728 128.153C81.9073 128.281 82.118 128.349 82.3332 128.348C82.929 128.348 83.0807 128.033 84.4998 126.493V128.348C84.4998 128.657 84.614 128.954 84.8171 129.173C85.0203 129.392 85.2959 129.515 85.5832 129.515C85.8705 129.515 86.146 129.392 86.3492 129.173C86.5524 128.954 86.6665 128.657 86.6665 128.348V126.493C87.999 127.928 88.2265 128.348 88.8332 128.348C89.0483 128.349 89.259 128.281 89.4383 128.153C89.6176 128.025 89.7575 127.843 89.84 127.629C89.9225 127.415 89.944 127.179 89.9016 126.952C89.8593 126.725 89.7551 126.516 89.6023 126.353L88.194 124.848H89.9165C90.2038 124.848 90.4794 124.725 90.6825 124.506C90.8857 124.287 90.9998 123.991 90.9998 123.681C90.9998 123.372 90.8857 123.075 90.6825 122.856C90.4794 122.637 90.2038 122.515 89.9165 122.515Z" fill="#425B72"/>
<circle cx="107.348" cy="103.348" r="13.3478" fill="#F1F4F8" stroke="#979A9D" stroke-width="2"/>
<path d="M107.932 95C109.443 95 110.65 95.4147 111.553 96.2441C112.471 97.0735 112.931 98.2065 112.931 99.6431C112.931 101.139 112.457 102.265 111.509 103.02C110.561 103.775 109.302 104.153 107.732 104.153L107.643 105.908H105.444L105.333 102.42H106.066C107.502 102.42 108.598 102.228 109.354 101.843C110.124 101.457 110.509 100.724 110.509 99.6431C110.509 98.8582 110.279 98.2435 109.82 97.7992C109.376 97.3549 108.754 97.1327 107.954 97.1327C107.154 97.1327 106.525 97.3475 106.066 97.777C105.607 98.2065 105.377 98.8063 105.377 99.5765H103C103 98.6879 103.2 97.8955 103.6 97.1994C104 96.5033 104.57 95.9627 105.31 95.5776C106.066 95.1925 106.94 95 107.932 95ZM106.51 110.818C106.051 110.818 105.666 110.662 105.355 110.351C105.044 110.04 104.888 109.655 104.888 109.196C104.888 108.737 105.044 108.352 105.355 108.041C105.666 107.73 106.051 107.574 106.51 107.574C106.954 107.574 107.332 107.73 107.643 108.041C107.954 108.352 108.11 108.737 108.11 109.196C108.11 109.655 107.954 110.04 107.643 110.351C107.332 110.662 106.954 110.818 106.51 110.818Z" fill="#BC1006"/>
</svg>
