<svg width="20" height="20" viewBox="0 0 20 20" fill="none" xmlns="http://www.w3.org/2000/svg">
<path d="M8.54171 17.9167C12.1085 17.9167 15 15.0252 15 11.4583C15 7.89149 12.1085 5 8.54171 5C4.97487 5 2.08337 7.89149 2.08337 11.4583C2.08337 15.0252 4.97487 17.9167 8.54171 17.9167Z" stroke="#6E6A7C" stroke-width="1.5" stroke-linecap="round" stroke-linejoin="round"/>
<path d="M17.9167 2.0835L13.3334 6.66683" stroke="#424559" stroke-width="1.5" stroke-linecap="round" stroke-linejoin="round"/>
<path d="M12.5 2.0835H17.9167V7.50016" stroke="#424559" stroke-width="1.5" stroke-linecap="round" stroke-linejoin="round"/>
<path d="M8.54183 17.9167C12.1087 17.9167 15.0002 15.0252 15.0002 11.4583C15.0002 7.89149 12.1087 5 8.54183 5C4.97499 5 2.0835 7.89149 2.0835 11.4583C2.0835 15.0252 4.97499 17.9167 8.54183 17.9167Z" stroke="#6E6A7C" stroke-width="1.5" stroke-linecap="round" stroke-linejoin="round"/>
</svg>
