<svg width="20" height="20" viewBox="0 0 20 20" fill="none" xmlns="http://www.w3.org/2000/svg">
<path d="M8.54183 17.9167C12.1087 17.9167 15.0002 15.0252 15.0002 11.4583C15.0002 7.89149 12.1087 5 8.54183 5C4.97499 5 2.0835 7.89149 2.0835 11.4583C2.0835 15.0252 4.97499 17.9167 8.54183 17.9167Z" stroke="#292D32" stroke-width="1.5" stroke-linecap="round" stroke-linejoin="round"/>
<path d="M17.9168 2.0835L13.3335 6.66683" stroke="#292D32" stroke-width="1.5" stroke-linecap="round" stroke-linejoin="round"/>
<path d="M12.5 2.0835H17.9167V7.50016" stroke="#292D32" stroke-width="1.5" stroke-linecap="round" stroke-linejoin="round"/>
<path d="M8.54183 17.9167C12.1087 17.9167 15.0002 15.0252 15.0002 11.4583C15.0002 7.89149 12.1087 5 8.54183 5C4.97499 5 2.0835 7.89149 2.0835 11.4583C2.0835 15.0252 4.97499 17.9167 8.54183 17.9167Z" stroke="#A9ABAD" stroke-width="1.5" stroke-linecap="round" stroke-linejoin="round"/>
</svg>
