<svg width="144" height="144" viewBox="0 0 144 144" fill="none" xmlns="http://www.w3.org/2000/svg">
<circle opacity="0.5" cx="72" cy="72" r="72" fill="#384156"/>
<path d="M89.8043 54.6843C86.4529 52.0671 84.2857 48 84.2857 43.4286C84.2857 41.8286 84.5614 40.2943 85.05 38.8557C81.3829 34.6629 76.0086 32 70 32C58.9543 32 50 40.9543 50 52C50 61.0586 56.0271 68.7014 64.2857 71.1614V106.286L70 112L75.7143 106.286V100.571H78.5714V97.7143H75.7143V94.8571H78.5714V92H75.7143V89.1429H78.5714V86.2857H75.7143V71.1614C83.1414 68.9486 88.7486 62.54 89.8043 54.6843ZM70 49.1429C66.8443 49.1429 64.2857 46.5843 64.2857 43.4286C64.2857 40.2729 66.8443 37.7143 70 37.7143C73.1557 37.7143 75.7143 40.2729 75.7143 43.4286C75.7143 46.5843 73.1557 49.1429 70 49.1429Z" fill="#919191"/>
<path d="M70 106.286V71.1614C61.7414 68.7014 55.7143 61.0586 55.7143 52C55.7143 41.9271 63.1686 33.6171 72.8571 32.2271C71.9214 32.0929 70.9729 32 70 32C58.9543 32 50 40.9543 50 52C50 61.0586 56.0271 68.7014 64.2857 71.1614V106.286L70 112L72.8571 109.143L70 106.286Z" fill="#7C7D7D"/>
<path d="M98.5711 54.8571C104.883 54.8571 110 49.7404 110 43.4286C110 37.1167 104.883 32 98.5711 32C92.2593 32 87.1426 37.1167 87.1426 43.4286C87.1426 49.7404 92.2593 54.8571 98.5711 54.8571Z" fill="#3CC8B4"/>
<path d="M89.9754 43.4286C89.9754 37.5971 94.3454 32.7957 99.9883 32.0971C99.5226 32.0386 99.0511 32 98.5711 32C92.2597 32 87.1426 37.1171 87.1426 43.4286C87.1426 49.74 92.2597 54.8571 98.5711 54.8571C99.0511 54.8571 99.5226 54.8186 99.9869 54.76C94.3454 54.0614 89.9754 49.26 89.9754 43.4286Z" fill="#1EAA96"/>
<path d="M105.714 40.5714L97.143 49.1429L91.4287 43.4286L94.2859 40.5714L97.143 43.4286L102.857 37.7143L105.714 40.5714Z" fill="#F0F0F0"/>
</svg>
