<svg width="16" height="16" viewBox="0 0 16 16" fill="none" xmlns="http://www.w3.org/2000/svg">
<path d="M6.00004 14.6663H10C13.3334 14.6663 14.6667 13.333 14.6667 9.99967V5.99967C14.6667 2.66634 13.3334 1.33301 10 1.33301H6.00004C2.66671 1.33301 1.33337 2.66634 1.33337 5.99967V9.99967C1.33337 13.333 2.66671 14.6663 6.00004 14.6663Z" stroke="#333545" stroke-linecap="round" stroke-linejoin="round"/>
<path d="M12.0002 5.16634V9.66634C12.0002 8.93301 11.4002 8.33301 10.6669 8.33301H5.33358C4.60024 8.33301 4.00024 8.93301 4.00024 9.66634V5.16634C4.00024 4.43301 4.60024 3.83301 5.33358 3.83301H10.6669C11.4002 3.83301 12.0002 4.43301 12.0002 5.16634Z" stroke="#6E6A7C" stroke-linecap="round" stroke-linejoin="round"/>
<path d="M12.6669 10.5H12.0002" stroke="#6E6A7C" stroke-linecap="round" stroke-linejoin="round"/>
<path d="M4.00028 10.5H3.33362" stroke="#6E6A7C" stroke-linecap="round" stroke-linejoin="round"/>
<path d="M12.0002 9.33333V7.33333C12.0002 6.6 11.4002 6 10.6669 6H5.33358C4.60024 6 4.00024 6.6 4.00024 7.33333V9.33333" stroke="#6E6A7C" stroke-linecap="round" stroke-linejoin="round"/>
<path d="M12.0002 9.66634V10.4997H9.66691C9.66691 11.4197 8.92024 12.1663 8.00024 12.1663C7.08024 12.1663 6.33358 11.4197 6.33358 10.4997H4.00024V9.66634C4.00024 8.93301 4.60024 8.33301 5.33358 8.33301H10.6669C11.4002 8.33301 12.0002 8.93301 12.0002 9.66634Z" stroke="#6E6A7C" stroke-linecap="round" stroke-linejoin="round"/>
</svg>
