<svg width="16" height="20" viewBox="0 0 16 20" fill="none" xmlns="http://www.w3.org/2000/svg">
<path d="M9.62085 12.5203C9.35559 12.293 9.09032 12.0087 8.78713 11.7057C8.57871 11.4783 8.35138 11.1563 8.16187 10.8151C8.5219 9.58363 8.6924 8.4088 8.31347 7.84034C8.14297 7.57509 7.87771 7.44238 7.53659 7.44238C7.15768 7.44238 6.87337 7.61288 6.74081 7.93498C6.43762 8.61708 6.8924 9.86764 7.44182 10.8907C7.29023 11.3833 7.10084 11.9138 6.87337 12.5013C6.74068 12.8234 6.58922 13.1455 6.43762 13.4487C4.88387 14.0551 3.93651 14.737 3.80394 15.3813C3.74711 15.6845 3.84187 15.9498 4.10713 16.1582C4.25873 16.2719 4.42922 16.3477 4.61874 16.3477C4.69447 16.3477 4.77034 16.3288 4.84607 16.3098C5.5661 16.1203 6.34284 15.0592 6.91129 13.9793C7.25227 13.8466 7.65023 13.7141 8.08599 13.6004C8.5976 13.4488 9.05227 13.3352 9.45019 13.2594C10.1891 13.8468 10.8144 14.1689 11.3638 14.1689C11.7807 14.1878 12.0839 14.0362 12.368 13.752C12.7849 13.3352 12.6144 12.9751 12.5576 12.8804C12.2166 12.3499 11.1746 12.2361 9.62084 12.5203L9.62085 12.5203ZM4.65666 15.6466C4.58092 15.6655 4.54299 15.6466 4.50506 15.6277C4.42933 15.5708 4.42933 15.5329 4.44823 15.495C4.48616 15.2676 4.92191 14.8508 5.86928 14.396C5.41451 15.0781 4.9597 15.5709 4.65665 15.6466L4.65666 15.6466ZM7.34717 8.20027C7.36607 8.16234 7.3851 8.10551 7.5367 8.10551C7.66939 8.10551 7.72623 8.16234 7.76403 8.20027C7.93452 8.44663 7.91562 9.07192 7.70719 9.90546C7.38511 9.18557 7.2145 8.50343 7.34716 8.20027H7.34717ZM7.8777 12.9371C7.68817 12.9939 7.49878 13.0508 7.30924 13.1076C7.36607 12.9749 7.42291 12.8423 7.47974 12.7287C7.61243 12.3686 7.76389 12.0087 7.89658 11.6297C8.04817 11.8382 8.18073 12.0277 8.31342 12.1603C8.48391 12.3498 8.6544 12.5203 8.82503 12.6908C8.52184 12.7667 8.19977 12.8424 7.87767 12.9371L7.8777 12.9371ZM11.8756 13.2781C11.7429 13.4297 11.5724 13.4865 11.364 13.4865C11.0798 13.4865 10.7387 13.3538 10.3409 13.0885C11.4398 12.9371 12.065 13.0507 11.8756 13.2781V13.2781Z" fill="#E96161"/>
<path d="M15.1332 5.5061V5.50417L15.0892 5.46023L10.9398 1.31077C10.6475 1.01848 10.2498 0.85 9.84842 0.85H2.40213C1.98084 0.85 1.60228 1.01929 1.31078 1.31077L1.31077 1.31077C1.01928 1.60226 0.85 1.9807 0.85 2.40213V17.5979C0.85 18.4576 1.54242 19.15 2.40213 19.15H13.9979C14.8576 19.15 15.55 18.4576 15.55 17.5979V6.55159C15.55 6.17093 15.3983 5.79341 15.1332 5.5061ZM13.9357 18.0351L2.40211 18.0351C2.16287 18.0351 1.96478 17.837 1.96478 17.5978V2.40207C1.96478 2.28756 2.00766 2.17497 2.09134 2.0913L2.09134 2.09129C2.17503 2.00761 2.28762 1.96473 2.40212 1.96473H9.52788V5.28209C9.52788 6.16072 10.2392 6.87205 11.1178 6.87205H14.4352V17.5978C14.4352 17.8369 14.2371 18.0351 13.9979 18.0351H13.9357ZM13.8239 5.75728H11.1178C10.8597 5.75728 10.6426 5.54026 10.6426 5.28202L10.6427 2.59231L13.8239 5.75728Z" fill="#E96161" stroke="#E96161" stroke-width="0.3"/>
</svg>
