<svg width="14" height="14" viewBox="0 0 14 14" fill="none" xmlns="http://www.w3.org/2000/svg">
<path d="M6.99967 7.00033C8.61051 7.00033 9.91634 5.69449 9.91634 4.08366C9.91634 2.47283 8.61051 1.16699 6.99967 1.16699C5.38884 1.16699 4.08301 2.47283 4.08301 4.08366C4.08301 5.69449 5.38884 7.00033 6.99967 7.00033Z" stroke="white" stroke-linecap="round" stroke-linejoin="round"/>
<path d="M11.2058 9.18192L9.14076 11.2469C9.0591 11.3286 8.98327 11.4803 8.96577 11.5911L8.85494 12.3786C8.8141 12.6644 9.01244 12.8627 9.29828 12.8219L10.0858 12.7111C10.1966 12.6936 10.3541 12.6178 10.4299 12.5361L12.4949 10.4711C12.8508 10.1153 13.0199 9.70108 12.4949 9.17608C11.9758 8.65692 11.5616 8.82609 11.2058 9.18192Z" stroke="white" stroke-miterlimit="10" stroke-linecap="round" stroke-linejoin="round"/>
<path d="M10.9082 9.47949C11.0832 10.1095 11.5732 10.5995 12.2032 10.7745" stroke="white" stroke-miterlimit="10" stroke-linecap="round" stroke-linejoin="round"/>
<path opacity="0.4" d="M1.98926 12.8333C1.98926 10.5758 4.23511 8.75 7.00011 8.75C7.60677 8.75 8.19009 8.8375 8.73259 9.00083" stroke="white" stroke-linecap="round" stroke-linejoin="round"/>
</svg>
