<svg width="144" height="144" viewBox="0 0 144 144" fill="none" xmlns="http://www.w3.org/2000/svg">
<circle opacity="0.5" cx="72" cy="72" r="72" fill="url(#paint0_linear_1103_23470)"/>
<path d="M32 111.968V66.762L72.0869 90.4633L32 111.968Z" fill="#919191"/>
<path d="M112 111.968V66.762L71.9131 90.4633L112 111.968Z" fill="#919191"/>
<path d="M32 111.968L71.9131 90.4633L112 111.968H32Z" fill="#7C7D7D"/>
<path d="M71.9131 32L32 66.762L71.9131 90.4633L112 66.762L71.9131 32Z" fill="#919191"/>
<path d="M71.9496 90.416L103.188 71.9447V42.7446H41.0588V72.1501L71.9496 90.416Z" fill="#DAD7E5"/>
<path d="M72.5738 90.416L95.6887 71.9447V42.7446H103.465V72.1501L72.5738 90.416Z" fill="#C6C3D8"/>
<path d="M63.2029 74.5881L64.7916 75.9745H81.0166V74.5881H63.2029Z" fill="#624FFA"/>
<path d="M70.7036 71.2552C69.3843 71.2552 68.1938 71.0474 67.1323 70.6319C66.086 70.2317 65.1913 69.6546 64.4482 68.9004C63.7203 68.1617 63.1592 67.269 62.765 66.2225C62.3858 65.1759 62.1963 64.0216 62.1963 62.7596C62.1963 60.9589 62.5072 59.3429 63.1289 57.9116C63.7658 56.4649 64.6378 55.2413 65.7448 54.2409C66.8669 53.2251 68.1635 52.4556 69.6345 51.9323C71.1206 51.3937 72.7053 51.1243 74.3885 51.1243C75.6017 51.1243 76.6935 51.3013 77.6641 51.6553C78.6346 51.9939 79.4686 52.4864 80.1662 53.1328C80.8638 53.7792 81.3945 54.5487 81.7585 55.4414C82.1376 56.3186 82.3271 57.2959 82.3271 58.3733C82.3271 59.4352 82.1755 60.4433 81.8722 61.3975C81.5841 62.3517 81.1746 63.1982 80.6439 63.937C80.1131 64.6757 79.4914 65.2606 78.7786 65.6915C78.0811 66.1224 77.3229 66.3379 76.504 66.3379C75.9429 66.3379 75.4425 66.2379 75.0027 66.0378C74.5629 65.8377 74.2217 65.5684 73.9791 65.2298C73.7365 64.8758 73.6151 64.4602 73.6151 63.9831C73.6151 63.7215 73.6303 63.4599 73.6606 63.1982C73.7061 62.9366 73.7365 62.6672 73.7516 62.3902L74.2521 62.8519C74.0094 63.5907 73.691 64.2217 73.2967 64.745C72.9176 65.2683 72.4702 65.6684 71.9546 65.9454C71.4542 66.2071 70.9007 66.3379 70.2941 66.3379C69.6117 66.3379 68.9976 66.1609 68.4516 65.8069C67.9209 65.4375 67.5039 64.9297 67.2006 64.2833C66.8973 63.6369 66.7456 62.8904 66.7456 62.0439C66.7456 61.3052 66.8821 60.5587 67.1551 59.8046C67.428 59.0351 67.8071 58.3348 68.2924 57.7038C68.7928 57.0574 69.3767 56.5418 70.0439 56.157C70.7111 55.7569 71.439 55.5568 72.2276 55.5568C72.6977 55.5568 73.1147 55.6799 73.4787 55.9262C73.8578 56.1724 74.1611 56.5187 74.3885 56.965C74.6312 57.396 74.7752 57.8962 74.8207 58.4656L74.1838 59.3429L74.8207 55.8108H77.7778L76.504 63.0597C76.4585 63.3213 76.4661 63.5368 76.5267 63.7061C76.6025 63.86 76.7163 63.9754 76.8679 64.0524C77.0347 64.1294 77.2091 64.1678 77.3911 64.1678C77.8157 64.1678 78.21 64.0216 78.5739 63.7292C78.953 63.4214 79.2791 63.0058 79.552 62.4826C79.825 61.9593 80.0373 61.3591 80.1889 60.6819C80.3558 59.9893 80.4392 59.2582 80.4392 58.4887C80.4392 57.3344 80.1965 56.3417 79.7113 55.5106C79.226 54.6795 78.5209 54.0485 77.5958 53.6176C76.6708 53.1713 75.5562 52.9481 74.2521 52.9481C72.7053 52.9481 71.3026 53.1713 70.0439 53.6176C68.8004 54.0485 67.7313 54.6872 66.8366 55.5337C65.9571 56.3802 65.2823 57.4037 64.8122 58.6041C64.3421 59.8046 64.107 61.1667 64.107 62.6903C64.107 63.7523 64.2511 64.6988 64.5392 65.5299C64.8425 66.3456 65.2747 67.0459 65.8358 67.6307C66.3969 68.2155 67.0944 68.6542 67.9285 68.9466C68.7625 69.2544 69.7103 69.4083 70.7718 69.4083C71.4845 69.4083 72.0987 69.3544 72.6143 69.2467C73.1299 69.1544 73.6227 69.0005 74.0928 68.785C74.5629 68.5849 75.0861 68.331 75.6623 68.0232L76.504 69.5699C75.6093 70.0316 74.8435 70.3779 74.2066 70.6088C73.5696 70.855 72.9782 71.0243 72.4323 71.1167C71.8864 71.209 71.3101 71.2552 70.7036 71.2552ZM71.113 63.8215C71.5376 63.8215 71.9546 63.683 72.3641 63.406C72.7735 63.1136 73.1223 62.7365 73.4104 62.2748C73.7137 61.8131 73.9033 61.3129 73.9791 60.7742C74.0246 60.5434 74.0625 60.3356 74.0928 60.1509C74.1232 59.9662 74.1383 59.7892 74.1383 59.6199C74.1383 59.2813 74.0777 58.9889 73.9563 58.7427C73.835 58.4964 73.6606 58.3117 73.4332 58.1886C73.2057 58.0501 72.9252 57.9808 72.5915 57.9808C72.0759 57.9808 71.6059 58.1732 71.1812 58.558C70.7718 58.9427 70.4458 59.4429 70.2031 60.0585C69.9605 60.6742 69.8392 61.3206 69.8392 61.9978C69.8392 62.5672 69.9529 63.0135 70.1804 63.3367C70.4079 63.6599 70.7187 63.8215 71.113 63.8215Z" fill="#624FFA"/>
<defs>
<linearGradient id="paint0_linear_1103_23470" x1="78" y1="188" x2="80" y2="-41.5" gradientUnits="userSpaceOnUse">
<stop stop-color="#EBF2FF"/>
<stop offset="1" stop-color="#D3CDFF" stop-opacity="0.35"/>
</linearGradient>
</defs>
</svg>
