<svg width="161" height="51" viewBox="0 0 161 51" fill="none" xmlns="http://www.w3.org/2000/svg">
<path d="M54.7713 0L28.2344 15.3264L30.1241 2.93075L54.7713 0Z" fill="url(#paint0_linear_909_4504)"/>
<path d="M54.7717 0L39.8937 19.8907L28.2188 15.3264L54.7717 0Z" fill="url(#paint1_linear_909_4504)"/>
<path d="M27.3857 16.7837V47.4364L37.1709 24.615L27.3857 16.7837Z" fill="url(#paint2_linear_909_4504)"/>
<path d="M17.6006 24.615L27.3858 16.7837V47.4364L17.6006 24.615Z" fill="url(#paint3_linear_909_4504)"/>
<path d="M26.5369 15.3264L0 0L14.878 19.8907L26.5369 15.3264Z" fill="url(#paint4_linear_909_4504)"/>
<path d="M24.6631 2.94676L26.5529 15.3424L0 0L24.6631 2.94676Z" fill="url(#paint5_linear_909_4504)"/>
<path d="M62.9937 39.4044V15.2499H54.3604V10.3254H77.4552V15.2499H68.8531V39.4044H62.9937Z" fill="#384156"/>
<path d="M104.446 39.4044H98.0567L95.5321 32.797H83.9068L81.5069 39.4044H75.2734L86.5871 10.3254H92.7894L104.446 39.4044ZM93.6309 27.8726L89.6103 17.0887L85.6833 27.8726H93.6309Z" fill="#384156"/>
<path d="M106.066 29.9297L111.77 29.3687C112.113 31.301 112.799 32.7035 113.858 33.6074C114.918 34.5112 116.32 34.9476 118.097 34.9476C119.998 34.9476 121.401 34.5424 122.367 33.7632C123.333 32.9529 123.801 32.0179 123.801 30.9582C123.801 30.2725 123.614 29.6803 123.208 29.2128C122.803 28.7453 122.086 28.309 121.089 27.9661C120.403 27.7168 118.845 27.3116 116.383 26.6883C113.235 25.9091 111.022 24.9429 109.744 23.8209C107.968 22.2314 107.064 20.2678 107.064 17.9615C107.064 16.4654 107.469 15.0941 108.31 13.8162C109.152 12.5384 110.367 11.541 111.926 10.8865C113.515 10.2008 115.417 9.88916 117.661 9.88916C121.307 9.88916 124.05 10.6995 125.889 12.289C127.728 13.8786 128.694 16.0291 128.787 18.7095L122.928 18.9588C122.679 17.4628 122.149 16.4031 121.307 15.7486C120.466 15.0941 119.25 14.7824 117.598 14.7824C115.884 14.7824 114.544 15.1252 113.578 15.8421C112.954 16.2784 112.643 16.9018 112.643 17.6498C112.643 18.3355 112.923 18.9276 113.515 19.4263C114.263 20.0497 116.04 20.7042 118.907 21.3587C121.775 22.0444 123.863 22.73 125.234 23.4469C126.606 24.1637 127.665 25.1611 128.444 26.4078C129.224 27.6545 129.598 29.2128 129.598 31.0517C129.598 32.7036 129.13 34.2931 128.195 35.7268C127.26 37.1916 125.951 38.2513 124.268 38.9682C122.585 39.685 120.466 40.0278 117.941 40.0278C114.263 40.0278 111.458 39.1863 109.464 37.4721C107.625 35.6644 106.472 33.1711 106.066 29.9297Z" fill="#384156"/>
<path d="M134.74 39.4044V10.3254H140.6V23.2287L152.443 10.3254H160.329L149.389 21.6391L160.921 39.3733H153.316L145.337 25.722L140.568 30.5841V39.3733H134.74V39.4044Z" fill="#384156"/>
<path d="M79.0137 48.6924H78.5774C78.515 48.6924 78.4527 48.6613 78.4215 48.5989L77.1125 45.264V48.1626H77.5488C77.6112 48.1626 77.6423 48.1937 77.6423 48.2561V48.5989C77.6423 48.6613 77.6112 48.6924 77.5488 48.6924H76.1775C76.1151 48.6924 76.084 48.6613 76.084 48.5989V48.2561C76.084 48.1937 76.1151 48.1626 76.1775 48.1626H76.5515V44.6407H76.1775C76.1151 44.6407 76.084 44.6095 76.084 44.5472V44.2043C76.084 44.142 76.1151 44.1108 76.1775 44.1108H77.3618C77.4242 44.1108 77.4865 44.142 77.4865 44.2043L78.889 47.8509L80.3227 44.2043C80.3539 44.142 80.3851 44.1108 80.4474 44.1108H81.5694C81.6317 44.1108 81.6629 44.142 81.6629 44.2043V44.5472C81.6629 44.6095 81.6317 44.6407 81.5694 44.6407H81.1954V48.1626H81.5694C81.6317 48.1626 81.6629 48.1937 81.6629 48.2561V48.5989C81.6629 48.6613 81.6317 48.6924 81.5694 48.6924H80.0734C80.011 48.6924 79.9799 48.6613 79.9799 48.5989V48.2561C79.9799 48.1937 80.011 48.1626 80.0734 48.1626H80.4786V45.264L79.1384 48.5989C79.1072 48.6613 79.076 48.6924 79.0137 48.6924Z" fill="#8A939D"/>
<path d="M84.1567 46.6977V46.4484C84.1567 46.1367 84.0632 45.9185 83.8762 45.8562C83.7827 45.825 83.6581 45.7939 83.5022 45.7939C83.1906 45.7939 83.0036 45.9497 82.9412 46.2302C82.9412 46.2925 82.8789 46.3237 82.8477 46.3237H82.4114C82.349 46.3237 82.3179 46.2925 82.3179 46.2302C82.349 45.8873 82.4737 45.6692 82.723 45.5133C82.9724 45.3575 83.2841 45.2952 83.6581 45.2952C84.4684 45.2952 84.8736 45.6692 84.8736 46.4172V48.1937H85.1541C85.2164 48.1937 85.2476 48.2249 85.2476 48.2872V48.6301C85.2476 48.6924 85.2164 48.7236 85.1541 48.7236H84.3437C84.2814 48.7236 84.2502 48.6924 84.2502 48.6301L84.1879 48.3184C83.9386 48.6612 83.5957 48.8171 83.1282 48.8171C82.8477 48.8171 82.5984 48.7547 82.4114 48.5989C82.2244 48.4431 82.1309 48.1937 82.1309 47.882C82.1309 47.4457 82.3179 47.134 82.6919 46.9782C83.0036 46.8535 83.3464 46.76 83.7827 46.76C83.8762 46.6977 84.0009 46.6977 84.1567 46.6977ZM84.1567 47.695V47.1652C83.7204 47.1652 83.4711 47.1964 83.3464 47.2275C83.2529 47.2587 83.1594 47.321 83.0971 47.3522C82.9412 47.4145 82.8789 47.5704 82.8789 47.7574C82.8789 48.0691 83.0659 48.2249 83.4087 48.2249C83.6581 48.2249 83.8139 48.1626 83.9697 48.0691C84.1256 47.9756 84.1567 47.8197 84.1567 47.695Z" fill="#8A939D"/>
<path d="M85.6523 45.825V45.451C85.6523 45.3887 85.6835 45.3575 85.7458 45.3575H86.6809C86.7432 45.3575 86.7744 45.3887 86.7744 45.451L86.8367 45.8562C87.086 45.4822 87.46 45.2952 87.9275 45.2952C88.6132 45.2952 88.9872 45.6692 88.9872 46.4484V48.1937H89.3924C89.4547 48.1937 89.4859 48.2249 89.4859 48.2872V48.6301C89.4859 48.6924 89.4547 48.7236 89.3924 48.7236H87.9275C87.8652 48.7236 87.834 48.6924 87.834 48.6301V48.2872C87.834 48.2249 87.8652 48.1937 87.9275 48.1937H88.2392V46.76C88.2392 46.4795 88.2081 46.2614 88.1457 46.1367C88.0834 46.012 87.9275 45.9497 87.7094 45.9497C87.4912 45.9497 87.3042 46.012 87.1484 46.1678C86.9925 46.3237 86.9302 46.4483 86.9302 46.6354V48.1937H87.3354C87.3977 48.1937 87.4289 48.2249 87.4289 48.2872V48.6301C87.4289 48.6924 87.3977 48.7236 87.3354 48.7236H85.8082C85.7458 48.7236 85.7147 48.6924 85.7147 48.6301V48.2872C85.7147 48.2249 85.7458 48.1937 85.8082 48.1937H86.1822V45.9185H85.8082C85.6835 45.9185 85.6523 45.8873 85.6523 45.825Z" fill="#8A939D"/>
<path d="M91.7925 46.6977V46.4484C91.7925 46.1367 91.699 45.9185 91.512 45.8562C91.4185 45.825 91.2938 45.7939 91.138 45.7939C90.8263 45.7939 90.6393 45.9497 90.577 46.2302C90.577 46.2925 90.5146 46.3237 90.4835 46.3237H90.0471C89.9848 46.3237 89.9536 46.2925 89.9536 46.2302C89.9848 45.8873 90.1094 45.6692 90.3588 45.5133C90.6081 45.3575 90.9198 45.2952 91.2938 45.2952C92.1041 45.2952 92.5093 45.6692 92.5093 46.4172V48.1937H92.7898C92.8522 48.1937 92.8833 48.2249 92.8833 48.2872V48.6301C92.8833 48.6924 92.8522 48.7236 92.7898 48.7236H91.9795C91.9172 48.7236 91.886 48.6924 91.886 48.6301L91.8236 48.3184C91.5743 48.6612 91.2315 48.8171 90.764 48.8171C90.4835 48.8171 90.2341 48.7547 90.0471 48.5989C89.8601 48.4431 89.7666 48.1937 89.7666 47.882C89.7666 47.4457 89.9536 47.134 90.3276 46.9782C90.6393 46.8535 90.9821 46.76 91.4185 46.76C91.512 46.6977 91.6366 46.6977 91.7925 46.6977ZM91.7925 47.695V47.1652C91.3561 47.1652 91.1068 47.1964 90.9821 47.2275C90.8886 47.2587 90.7951 47.321 90.7328 47.3522C90.577 47.4145 90.5146 47.5704 90.5146 47.7574C90.5146 48.0691 90.7016 48.2249 91.0445 48.2249C91.2938 48.2249 91.4496 48.1626 91.6055 48.0691C91.7613 47.9756 91.7925 47.8197 91.7925 47.695Z" fill="#8A939D"/>
<path d="M96.4361 45.9185V48.3184C96.4361 48.5989 96.4362 48.8794 96.405 49.1287C96.3738 49.5027 96.218 49.8144 95.9686 50.0326C95.7193 50.2507 95.3765 50.3442 94.9089 50.3442C94.4414 50.3442 94.0674 50.2819 93.7869 50.1261C93.7246 50.0949 93.7246 50.0638 93.7246 50.0014L93.8493 49.6274C93.8804 49.5651 93.9116 49.5339 93.9739 49.5651C94.2544 49.6897 94.5349 49.7209 94.8154 49.7209C95.096 49.7209 95.3141 49.6586 95.4388 49.5027C95.5635 49.3781 95.657 49.1287 95.657 48.7859V48.256C95.47 48.5677 95.1271 48.7547 94.6908 48.7547C94.2545 48.7547 93.9116 48.5989 93.6934 48.3184C93.4753 48.0379 93.3506 47.6015 93.3506 47.0094C93.3506 46.4172 93.4753 45.9808 93.7558 45.6692C94.0363 45.3575 94.3791 45.2017 94.7843 45.2017C95.1895 45.2017 95.5323 45.3575 95.7816 45.638L95.844 45.3887C95.8751 45.3263 95.9063 45.2952 95.9686 45.2952H96.779C96.8413 45.2952 96.8725 45.3263 96.8725 45.3887V45.7315C96.8725 45.7938 96.8413 45.825 96.779 45.825H96.4361V45.9185ZM95.6881 47.4457V46.2302C95.657 46.199 95.657 46.1678 95.5946 46.1367C95.5635 46.1055 95.47 46.0432 95.3453 45.9808C95.2206 45.9185 95.0648 45.8873 94.9401 45.8873C94.6908 45.8873 94.5038 45.9808 94.3479 46.1678C94.1921 46.3548 94.1298 46.6353 94.1298 47.0094C94.1298 47.4145 94.1921 47.695 94.2856 47.9132C94.3791 48.1314 94.5973 48.2249 94.9089 48.2249C95.0959 48.2249 95.283 48.1625 95.4388 48.0067C95.5946 47.8509 95.6881 47.6639 95.6881 47.4457Z" fill="#8A939D"/>
<path d="M98.7742 48.7859C98.2443 48.7859 97.8392 48.6301 97.5898 48.3184C97.3405 48.0067 97.2158 47.6015 97.2158 47.0717C97.2158 46.5419 97.3405 46.1367 97.621 45.7939C97.9015 45.451 98.2755 45.2952 98.7742 45.2952C99.0235 45.2952 99.2417 45.3263 99.4287 45.4198C99.6157 45.5133 99.7404 45.638 99.8339 45.7939C100.021 46.1055 100.114 46.4484 100.114 46.8535C100.114 47.0405 100.114 47.134 100.083 47.1652C100.052 47.1964 100.021 47.1964 99.9897 47.1964H97.995C98.0262 47.508 98.0885 47.7885 98.2443 47.9444C98.369 48.1314 98.6183 48.2249 98.9612 48.2249C99.2105 48.2249 99.4599 48.1625 99.7404 48.0379C99.8027 48.0067 99.8339 48.0379 99.865 48.1002L99.9897 48.4119C100.021 48.4742 99.9897 48.5054 99.9274 48.5366C99.5845 48.6924 99.2105 48.7859 98.7742 48.7859ZM97.9638 46.6977H99.3664C99.3664 46.1367 99.1482 45.8562 98.7118 45.8562C98.4313 45.8562 98.2443 45.9497 98.1508 46.1055C98.0573 46.2614 97.9638 46.4795 97.9638 46.6977Z" fill="#8A939D"/>
<path d="M100.457 45.7939V45.451C100.457 45.3887 100.488 45.3575 100.551 45.3575H101.486C101.548 45.3575 101.579 45.3887 101.579 45.451L101.641 45.8562C101.891 45.4822 102.234 45.2952 102.701 45.2952C103.169 45.2952 103.48 45.4822 103.636 45.8874C103.885 45.4822 104.228 45.2952 104.696 45.2952C105.381 45.2952 105.755 45.6692 105.755 46.4484V48.1937H106.129C106.192 48.1937 106.223 48.2249 106.223 48.2872V48.6301C106.223 48.6924 106.192 48.7236 106.129 48.7236H104.633C104.571 48.7236 104.54 48.6924 104.54 48.6301V48.2872C104.54 48.2249 104.571 48.1937 104.633 48.1937H104.976V46.76C104.976 46.4795 104.945 46.2614 104.883 46.1367C104.82 46.012 104.665 45.9497 104.446 45.9497C104.228 45.9497 104.041 46.012 103.917 46.1367C103.792 46.2614 103.73 46.386 103.73 46.5419V48.1626H104.041C104.104 48.1626 104.135 48.1937 104.135 48.2561V48.5989C104.135 48.6612 104.104 48.6924 104.041 48.6924H102.639C102.576 48.6924 102.545 48.6612 102.545 48.5989V48.2561C102.545 48.1937 102.576 48.1626 102.639 48.1626H102.95V46.76C102.95 46.4795 102.919 46.2614 102.857 46.1367C102.795 46.012 102.639 45.9497 102.421 45.9497C102.202 45.9497 102.015 46.012 101.891 46.1367C101.766 46.2614 101.704 46.4172 101.704 46.6042V48.1626H102.109C102.171 48.1626 102.202 48.1937 102.202 48.2561V48.5989C102.202 48.6612 102.171 48.6924 102.109 48.6924H100.582C100.519 48.6924 100.488 48.6612 100.488 48.5989V48.2561C100.488 48.1937 100.519 48.1626 100.582 48.1626H100.956V45.8874H100.582C100.488 45.9185 100.457 45.8874 100.457 45.7939Z" fill="#8A939D"/>
<path d="M108.124 48.7859C107.594 48.7859 107.189 48.6301 106.939 48.3184C106.69 48.0067 106.565 47.6015 106.565 47.0717C106.565 46.5419 106.69 46.1367 106.971 45.7939C107.251 45.451 107.625 45.2952 108.124 45.2952C108.373 45.2952 108.591 45.3263 108.778 45.4198C108.965 45.5133 109.09 45.638 109.183 45.7939C109.37 46.1055 109.464 46.4484 109.464 46.8535C109.464 47.0405 109.464 47.134 109.433 47.1652C109.402 47.1964 109.37 47.1964 109.339 47.1964H107.345C107.376 47.508 107.438 47.7885 107.594 47.9444C107.719 48.1314 107.968 48.2249 108.311 48.2249C108.56 48.2249 108.809 48.1625 109.09 48.0379C109.152 48.0067 109.183 48.0379 109.215 48.1002L109.339 48.4119C109.37 48.4742 109.339 48.5054 109.277 48.5366C108.934 48.6924 108.56 48.7859 108.124 48.7859ZM107.313 46.6977H108.716C108.716 46.1367 108.498 45.8562 108.061 45.8562C107.781 45.8562 107.594 45.9497 107.5 46.1055C107.376 46.2614 107.345 46.4795 107.313 46.6977Z" fill="#8A939D"/>
<path d="M109.807 45.825V45.451C109.807 45.3887 109.838 45.3575 109.9 45.3575H110.835C110.897 45.3575 110.929 45.3887 110.929 45.451L110.991 45.8562C111.24 45.4822 111.614 45.2952 112.082 45.2952C112.768 45.2952 113.142 45.6692 113.142 46.4484V48.1937H113.547C113.609 48.1937 113.64 48.2249 113.64 48.2872V48.6301C113.64 48.6924 113.609 48.7236 113.547 48.7236H112.082C112.02 48.7236 111.988 48.6924 111.988 48.6301V48.2872C111.988 48.2249 112.02 48.1937 112.082 48.1937H112.394V46.76C112.394 46.4795 112.362 46.2614 112.3 46.1367C112.238 46.012 112.082 45.9497 111.864 45.9497C111.645 45.9497 111.458 46.012 111.303 46.1678C111.147 46.2925 111.084 46.4483 111.084 46.6354V48.1937H111.49C111.552 48.1937 111.583 48.2249 111.583 48.2872V48.6301C111.583 48.6924 111.552 48.7236 111.49 48.7236H109.962C109.9 48.7236 109.869 48.6924 109.869 48.6301V48.2872C109.869 48.2249 109.9 48.1937 109.962 48.1937H110.336V45.9185H109.962C109.838 45.9185 109.807 45.8873 109.807 45.825Z" fill="#8A939D"/>
<path d="M115.074 45.9185V47.6327C115.074 47.8508 115.105 48.0067 115.167 48.1002C115.23 48.1937 115.323 48.256 115.479 48.256C115.635 48.256 115.76 48.2249 115.915 48.1625C115.978 48.1314 116.009 48.1625 116.009 48.2249L116.134 48.5365C116.134 48.5365 116.134 48.5677 116.134 48.5989C116.134 48.63 116.102 48.6612 116.071 48.6924C115.853 48.7859 115.604 48.8482 115.292 48.8482C114.887 48.8482 114.638 48.7547 114.513 48.5365C114.419 48.4119 114.357 48.256 114.357 48.1314C114.326 47.9444 114.326 47.7885 114.326 47.6015V45.9808H113.952C113.89 45.9808 113.858 45.9497 113.858 45.8873V45.5445C113.858 45.4821 113.89 45.451 113.952 45.451H114.326V44.5471C114.326 44.4848 114.357 44.4536 114.419 44.4536H114.98C115.043 44.4536 115.074 44.4848 115.074 44.5471V45.451H115.76C115.822 45.451 115.853 45.4821 115.853 45.5445V45.8873C115.853 45.9497 115.822 45.9808 115.76 45.9808H115.074V45.9185Z" fill="#8A939D"/>
<path d="M119.5 43.9861C119.843 43.9861 120.154 44.0484 120.497 44.1419C120.56 44.1731 120.591 44.2043 120.591 44.2666V45.2016C120.591 45.2639 120.56 45.2951 120.497 45.2951H120.123C120.061 45.2951 120.03 45.2639 120.03 45.2016L120.061 44.7341C119.874 44.6406 119.687 44.5783 119.469 44.5783C119.251 44.5783 119.064 44.6406 118.939 44.7341C118.814 44.8276 118.752 44.9834 118.752 45.1705C118.752 45.3575 118.814 45.5133 118.939 45.638C119.064 45.7626 119.219 45.8561 119.469 45.9496C119.687 46.0431 119.843 46.1055 119.936 46.1366C119.999 46.1678 120.123 46.2301 120.279 46.3236C120.435 46.4171 120.528 46.4795 120.591 46.573C120.653 46.6665 120.715 46.76 120.778 46.9158C120.84 47.0405 120.871 47.1963 120.871 47.3833C120.871 47.8197 120.715 48.1937 120.435 48.443C120.154 48.6923 119.749 48.817 119.219 48.817C118.845 48.817 118.471 48.7547 118.097 48.63C118.035 48.5988 118.004 48.5677 118.004 48.5053V47.4145C118.004 47.3521 118.035 47.321 118.097 47.321H118.471C118.534 47.321 118.565 47.3521 118.565 47.4145L118.534 47.9755C118.596 48.0378 118.69 48.069 118.814 48.1313C118.939 48.1937 119.095 48.1937 119.251 48.1937C119.812 48.1937 120.092 47.9755 120.092 47.508C120.092 47.2898 120.03 47.1028 119.874 46.9781C119.718 46.8535 119.531 46.76 119.282 46.6665C119.032 46.573 118.877 46.5106 118.752 46.4483C118.627 46.386 118.503 46.2925 118.378 46.199C118.129 46.012 118.004 45.7315 118.004 45.3263C118.004 44.9211 118.129 44.6094 118.409 44.3601C118.658 44.1108 119.032 43.9861 119.5 43.9861Z" fill="#8A939D"/>
<path d="M122.212 45.4509L122.991 47.9131L123.708 45.9184H123.365C123.303 45.9184 123.271 45.8872 123.271 45.8249V45.4821C123.271 45.4197 123.303 45.3885 123.365 45.3885H124.362C124.425 45.3885 124.456 45.4197 124.456 45.4509C124.487 45.482 124.487 45.5132 124.487 45.5444C124.487 45.5755 124.487 45.6067 124.487 45.6067L123.053 49.378C122.991 49.5338 122.929 49.6896 122.866 49.7831C122.804 49.8766 122.742 49.9701 122.679 50.0636C122.523 50.2506 122.274 50.3753 121.931 50.3753C121.62 50.3753 121.339 50.313 121.121 50.2195C121.09 50.1883 121.059 50.1883 121.059 50.1571C121.059 50.126 121.059 50.0948 121.059 50.0948L121.183 49.752C121.214 49.6896 121.246 49.6585 121.308 49.6896C121.526 49.752 121.713 49.7831 121.838 49.7831C121.962 49.7831 122.087 49.752 122.149 49.6896C122.212 49.6273 122.305 49.4715 122.368 49.2533L122.523 48.8169L121.495 45.9496H121.152C121.09 45.9496 121.059 45.9184 121.059 45.8561V45.5132C121.059 45.4509 121.09 45.4197 121.152 45.4197H122.025C122.149 45.3574 122.181 45.3885 122.212 45.4509Z" fill="#8A939D"/>
<path d="M125.328 45.5756C125.546 45.3886 125.858 45.2639 126.201 45.2639C126.544 45.2639 126.855 45.2951 127.105 45.3886C127.167 45.4197 127.198 45.4509 127.198 45.5132V46.2301C127.198 46.2924 127.167 46.3236 127.105 46.3236H126.699C126.637 46.3236 126.606 46.2924 126.606 46.2301L126.637 45.8873C126.512 45.8249 126.357 45.7938 126.201 45.7938C125.827 45.7938 125.671 45.9184 125.671 46.1678C125.671 46.2924 125.733 46.4171 125.858 46.4794C125.983 46.5418 126.107 46.6041 126.294 46.6664C126.45 46.7288 126.637 46.7599 126.793 46.8223C126.949 46.8846 127.105 46.9781 127.229 47.1339C127.354 47.2898 127.416 47.4768 127.416 47.695C127.416 48.0378 127.292 48.3183 127.042 48.5053C126.793 48.6923 126.481 48.7858 126.045 48.7858C125.733 48.7858 125.422 48.7546 125.079 48.6611C125.016 48.63 124.985 48.5988 124.985 48.5365V47.8196C124.985 47.7573 125.016 47.7261 125.079 47.7261H125.484C125.546 47.7261 125.577 47.7573 125.577 47.8196L125.546 48.1625C125.671 48.256 125.827 48.2871 126.076 48.2871C126.481 48.2871 126.668 48.1313 126.668 47.8508C126.668 47.695 126.606 47.6015 126.481 47.508C126.357 47.4145 126.232 47.3521 126.076 47.3209C125.92 47.2898 125.733 47.2274 125.577 47.1651C125.422 47.1028 125.266 47.0093 125.141 46.8534C125.016 46.6976 124.954 46.5106 124.954 46.2924C124.985 46.0119 125.079 45.7626 125.328 45.5756Z" fill="#8A939D"/>
<path d="M128.85 45.9185V47.6327C128.85 47.8508 128.881 48.0067 128.944 48.1002C129.006 48.1937 129.1 48.256 129.255 48.256C129.411 48.256 129.536 48.2249 129.692 48.1625C129.754 48.1314 129.785 48.1625 129.785 48.2249L129.91 48.5365C129.91 48.5365 129.91 48.5677 129.91 48.5989C129.91 48.63 129.879 48.6612 129.848 48.6924C129.629 48.7859 129.38 48.8482 129.068 48.8482C128.663 48.8482 128.414 48.7547 128.289 48.5365C128.196 48.4119 128.133 48.256 128.133 48.1314C128.102 47.9444 128.102 47.7885 128.102 47.6015V45.9808H127.728C127.666 45.9808 127.635 45.9497 127.635 45.8873V45.5445C127.635 45.4821 127.666 45.451 127.728 45.451H128.102V44.5471C128.102 44.4848 128.133 44.4536 128.196 44.4536H128.757C128.819 44.4536 128.85 44.4848 128.85 44.5471V45.451H129.536C129.598 45.451 129.629 45.4821 129.629 45.5445V45.8873C129.629 45.9497 129.598 45.9808 129.536 45.9808H128.85V45.9185Z" fill="#8A939D"/>
<path d="M131.811 48.7859C131.281 48.7859 130.876 48.6301 130.627 48.3184C130.378 48.0067 130.253 47.6015 130.253 47.0717C130.253 46.5419 130.378 46.1367 130.658 45.7939C130.939 45.451 131.313 45.2952 131.811 45.2952C132.061 45.2952 132.279 45.3263 132.466 45.4198C132.653 45.5133 132.777 45.638 132.871 45.7939C133.058 46.1055 133.151 46.4484 133.151 46.8535C133.151 47.0405 133.151 47.134 133.12 47.1652C133.089 47.1964 133.058 47.1964 133.027 47.1964H131.032C131.063 47.508 131.126 47.7885 131.281 47.9444C131.406 48.1314 131.655 48.2249 131.998 48.2249C132.248 48.2249 132.497 48.1625 132.777 48.0379C132.84 48.0067 132.871 48.0379 132.902 48.1002L133.027 48.4119C133.058 48.4742 133.027 48.5054 132.964 48.5366C132.622 48.6924 132.248 48.7859 131.811 48.7859ZM131.001 46.6977H132.403C132.403 46.1367 132.185 45.8562 131.749 45.8562C131.468 45.8562 131.281 45.9497 131.188 46.1055C131.094 46.2614 131.001 46.4795 131.001 46.6977Z" fill="#8A939D"/>
<path d="M133.494 45.7939V45.451C133.494 45.3887 133.525 45.3575 133.588 45.3575H134.523C134.585 45.3575 134.616 45.3887 134.616 45.451L134.678 45.8562C134.928 45.4822 135.271 45.2952 135.738 45.2952C136.206 45.2952 136.517 45.4822 136.673 45.8874C136.923 45.4822 137.265 45.2952 137.733 45.2952C138.419 45.2952 138.793 45.6692 138.793 46.4484V48.1937H139.167C139.229 48.1937 139.26 48.2249 139.26 48.2872V48.6301C139.26 48.6924 139.229 48.7236 139.167 48.7236H137.671C137.608 48.7236 137.577 48.6924 137.577 48.6301V48.2872C137.577 48.2249 137.608 48.1937 137.671 48.1937H138.013V46.76C138.013 46.4795 137.982 46.2614 137.92 46.1367C137.858 46.012 137.702 45.9497 137.484 45.9497C137.265 45.9497 137.078 46.012 136.954 46.1367C136.829 46.2614 136.767 46.386 136.767 46.5419V48.1626H137.078C137.141 48.1626 137.172 48.1937 137.172 48.2561V48.5989C137.172 48.6612 137.141 48.6924 137.078 48.6924H135.676C135.614 48.6924 135.582 48.6612 135.582 48.5989V48.2561C135.582 48.1937 135.614 48.1626 135.676 48.1626H135.988V46.76C135.988 46.4795 135.956 46.2614 135.894 46.1367C135.832 46.012 135.676 45.9497 135.458 45.9497C135.24 45.9497 135.052 46.012 134.928 46.1367C134.803 46.2614 134.741 46.4172 134.741 46.6042V48.1626H135.146C135.208 48.1626 135.239 48.1937 135.239 48.2561V48.5989C135.239 48.6612 135.208 48.6924 135.146 48.6924H133.619C133.556 48.6924 133.525 48.6612 133.525 48.5989V48.2561C133.525 48.1937 133.556 48.1626 133.619 48.1626H133.993V45.8874H133.619C133.525 45.9185 133.494 45.8874 133.494 45.7939Z" fill="#8A939D"/>
<defs>
<linearGradient id="paint0_linear_909_4504" x1="41.4999" y1="15.3289" x2="41.4999" y2="0" gradientUnits="userSpaceOnUse">
<stop stop-color="#384156"/>
<stop offset="0.6837" stop-color="#624FFA"/>
<stop offset="0.9949" stop-color="#384156"/>
</linearGradient>
<linearGradient id="paint1_linear_909_4504" x1="28.229" y1="9.94381" x2="54.7717" y2="9.94381" gradientUnits="userSpaceOnUse">
<stop stop-color="#150958"/>
<stop offset="1" stop-color="#624FFA"/>
</linearGradient>
<linearGradient id="paint2_linear_909_4504" x1="32.2772" y1="47.4396" x2="32.2772" y2="16.7819" gradientUnits="userSpaceOnUse">
<stop stop-color="#384156"/>
<stop offset="0.6837" stop-color="#624FFA"/>
<stop offset="0.9949" stop-color="#384156"/>
</linearGradient>
<linearGradient id="paint3_linear_909_4504" x1="22.4943" y1="47.4396" x2="22.4943" y2="16.7819" gradientUnits="userSpaceOnUse">
<stop stop-color="#150958"/>
<stop offset="1" stop-color="#624FFA"/>
</linearGradient>
<linearGradient id="paint4_linear_909_4504" x1="13.2713" y1="19.8876" x2="13.2713" y2="0" gradientUnits="userSpaceOnUse">
<stop stop-color="#384156"/>
<stop offset="0.6837" stop-color="#624FFA"/>
<stop offset="0.9949" stop-color="#384156"/>
</linearGradient>
<linearGradient id="paint5_linear_909_4504" x1="0" y1="7.66444" x2="26.5427" y2="7.66444" gradientUnits="userSpaceOnUse">
<stop stop-color="#150958"/>
<stop offset="1" stop-color="#624FFA"/>
</linearGradient>
</defs>
</svg>
